<?xml version="1.0" encoding="UTF-8"?>
<svg version="1.1" xmlns="http://www.w3.org/2000/svg" width="108" height="93">
<path d="M0 0 C35.64 0 71.28 0 108 0 C108 30.69 108 61.38 108 93 C72.36 93 36.72 93 0 93 C0 62.31 0 31.62 0 0 Z " fill="#D09D12" transform="translate(0,0)"/>
<path d="M0 0 C15.51 0 31.02 0 47 0 C47 13.2 47 26.4 47 40 C31.67924535 40.9457256 17.229942 40.83604288 2 39 C2.57584432 36.61435923 3.22227595 34.33317216 4 32 C3.34 32 2.68 32 2 32 C0.94044752 28.48575476 0.80001859 25.14344126 0.68359375 21.484375 C0.64548584 20.35741211 0.60737793 19.23044922 0.56811523 18.06933594 C0.52501221 16.64395508 0.48190918 15.21857422 0.4375 13.75 C0.293125 9.2125 0.14875 4.675 0 0 Z " fill="#EEEDED" transform="translate(61,0)"/>
<path d="M0 0 C9.54940849 0 18.58845739 0.01907866 28 1 C28.97710938 1.09539063 29.95421875 1.19078125 30.9609375 1.2890625 C33.30806916 1.51917345 35.65427016 1.75608561 38 2 C38.12503906 2.63550781 38.25007813 3.27101562 38.37890625 3.92578125 C38.80096589 6.17425004 38.80096589 6.17425004 40.9375 7.1875 C41.618125 7.455625 42.29875 7.72375 43 8 C43.66 8.33 44.32 8.66 45 9 C45 10.32 45 11.64 45 13 C44.34 13 43.68 13 43 13 C43.99 15.31 44.98 17.62 46 20 C46.495 29.405 46.495 29.405 47 39 C31.49 39 15.98 39 0 39 C0 26.13 0 13.26 0 0 Z " fill="#ECEAEA" transform="translate(0,54)"/>
<path d="M0 0 C13.86 0 27.72 0 42 0 C43.16071429 22.05357143 43.16071429 22.05357143 43 30 C41.68 30 40.36 30 39 30 C39.99 32.31 40.98 34.62 42 37 C32.312549 37.13410815 22.78439117 36.75586107 13.125 36 C8.79375 35.67 4.4625 35.34 0 35 C0 23.45 0 11.9 0 0 Z " fill="#E6E5E6" transform="translate(0,0)"/>
<path d="M0 0 C4.57151738 -0.04971951 9.14287468 -0.08586976 13.71459961 -0.10986328 C15.26736191 -0.11987381 16.82010558 -0.13348634 18.37280273 -0.15087891 C20.61446755 -0.17534652 22.85588149 -0.18653268 25.09765625 -0.1953125 C25.78336197 -0.20563507 26.46906769 -0.21595764 27.17555237 -0.22659302 C32.05067099 -0.22770858 35.06500346 0.59000099 40 2 C40 12.56 40 23.12 40 34 C25.81 34 11.62 34 -3 34 C-3 23.77 -3 13.54 -3 3 C-2.34 3 -1.68 3 -1 3 C-0.67 2.01 -0.34 1.02 0 0 Z " fill="#DDDCDC" transform="translate(68,59)"/>
<path d="M0 0 C1.97908485 -0.02752977 3.95828731 -0.04663002 5.9375 -0.0625 C7.03964844 -0.07410156 8.14179687 -0.08570313 9.27734375 -0.09765625 C11.99797994 -0.02628594 14.50462332 0.15854297 17.1875 0.5 C22.81171789 1.17323352 28.40565937 1.1088968 34.0625 1.0625 C35.11888672 1.05798828 36.17527344 1.05347656 37.26367188 1.04882812 C39.84247288 1.03715934 42.42124428 1.0192285 45 1 C45 7.93 45 14.86 45 22 C42.69 21.67 40.38 21.34 38 21 C36.12834982 20.94638252 34.25486692 20.93575788 32.3828125 20.97265625 C30.85333984 20.99102539 30.85333984 20.99102539 29.29296875 21.00976562 C27.18873104 21.04479301 25.08455603 21.08382587 22.98046875 21.12695312 C16.63821463 21.19493441 11.1349784 20.63300573 5 19 C3.875 14.25 3.875 14.25 5 12 C4.91348369 10.45386986 4.75997364 8.91090613 4.5625 7.375 C4.40974609 6.14910156 4.40974609 6.14910156 4.25390625 4.8984375 C4.17011719 4.27195312 4.08632812 3.64546875 4 3 C3.01 3 2.02 3 1 3 C0.67 2.01 0.34 1.02 0 0 Z " fill="#CC0913" transform="translate(63,39)"/>
<path d="M0 0 C14.05370652 -0.28391326 28.14588806 0.4748663 42 3 C41.67 3.66 41.34 4.32 41 5 C39.68 5 38.36 5 37 5 C37.1135629 6.64666203 37.24117381 8.29236082 37.375 9.9375 C37.47941406 11.31228516 37.47941406 11.31228516 37.5859375 12.71484375 C37.79089844 13.84599609 37.79089844 13.84599609 38 15 C38.66 15.33 39.32 15.66 40 16 C40 16.66 40 17.32 40 18 C39.34 18 38.68 18 38 18 C38 18.99 38 19.98 38 21 C25.23661661 21.36293981 12.69529406 20.23319422 0 19 C0 12.73 0 6.46 0 0 Z " fill="#C60C14" transform="translate(0,35)"/>
<path d="M0 0 C6.27 0 12.54 0 19 0 C19.60804375 4.86435001 20.1248448 9.02731461 20.09765625 13.8125 C20.09443359 14.82441406 20.09121094 15.83632812 20.08789062 16.87890625 C20.07951172 17.90886719 20.07113281 18.93882813 20.0625 20 C20.05798828 21.06089844 20.05347656 22.12179688 20.04882812 23.21484375 C20.03713843 25.80995598 20.02075276 28.40494709 20 31 C18.35 30.67 16.7 30.34 15 30 C14.34 27.69 13.68 25.38 13 23 C10.69 22.67 8.38 22.34 6 22 C5.71125 23.134375 5.4225 24.26875 5.125 25.4375 C4.75375 26.613125 4.3825 27.78875 4 29 C3.34 29.33 2.68 29.66 2 30 C-0.51936899 19.99000715 -0.14549048 10.25707865 0 0 Z " fill="#C80A12" transform="translate(42,0)"/>
<path d="M0 0 C4.57151738 -0.04971951 9.14287468 -0.08586976 13.71459961 -0.10986328 C15.26736191 -0.11987381 16.82010558 -0.13348634 18.37280273 -0.15087891 C20.61446755 -0.17534652 22.85588149 -0.18653268 25.09765625 -0.1953125 C25.78336197 -0.20563507 26.46906769 -0.21595764 27.17555237 -0.22659302 C32.05067099 -0.22770858 35.06500346 0.59000099 40 2 C40 9.26 40 16.52 40 24 C28.46153846 21.69230769 28.46153846 21.69230769 25 18 C25 17.34 25 16.68 25 16 C24.01 15.67 23.02 15.34 22 15 C20.578125 13.4765625 20.578125 13.4765625 19.25 11.625 C18.80140625 11.01914063 18.3528125 10.41328125 17.890625 9.7890625 C17 8 17 8 18 5 C17.34 5 16.68 5 16 5 C15.67 4.34 15.34 3.68 15 3 C12.64400765 2.53248212 12.64400765 2.53248212 9.9375 2.375 C9.01839844 2.30023438 8.09929687 2.22546875 7.15234375 2.1484375 C6.44207031 2.09945312 5.73179688 2.05046875 5 2 C5 2.66 5 3.32 5 4 C2.69 4 0.38 4 -2 4 C-1.67 6.64 -1.34 9.28 -1 12 C-1.66 12 -2.32 12 -3 12 C-3 9.03 -3 6.06 -3 3 C-2.34 3 -1.68 3 -1 3 C-0.67 2.01 -0.34 1.02 0 0 Z " fill="#E8DFDF" transform="translate(68,59)"/>
<path d="M0 0 C0.33 0 0.66 0 1 0 C1.58080291 10.00847869 2.1453608 19.97010499 2 30 C-3.94 30 -9.88 30 -16 30 C-16.71386884 24.28904932 -17.11264052 19.61573823 -17.0625 14 C-17.05798828 13.32066406 -17.05347656 12.64132813 -17.04882812 11.94140625 C-17.0372283 10.29423126 -17.01930199 8.64710274 -17 7 C-15.35 7 -13.7 7 -12 7 C-12 6.34 -12 5.68 -12 5 C-8.28400809 4.79913557 -7.22791555 4.8480563 -4 7 C-3.67 5.68 -3.34 4.36 -3 3 C-2.34 3 -1.68 3 -1 3 C-0.67 2.01 -0.34 1.02 0 0 Z " fill="#C90812" transform="translate(63,63)"/>
<path d="M0 0 C13.2 0 26.4 0 40 0 C41.16071429 22.05357143 41.16071429 22.05357143 41 30 C39.68 30 38.36 30 37 30 C37.99 32.31 38.98 34.62 40 37 C30.9401941 37.12224626 22.02253886 36.83930594 13 36 C13 35.67 13 35.34 13 35 C19.93 35 26.86 35 34 35 C33.67 34.01 33.34 33.02 33 32 C34.3125 30.5 34.3125 30.5 36 29 C36.99 29 37.98 29 39 29 C38.96679516 27.24919913 38.89720607 25.49906579 38.8125 23.75 C38.77769531 22.77546875 38.74289063 21.8009375 38.70703125 20.796875 C37.71671402 16.87937701 36.4422514 16.13966247 33 14 C29.32801139 12.17239434 25.58579604 10.54361899 21.8125 8.9375 C20.82185547 8.50373047 19.83121094 8.06996094 18.81054688 7.62304688 C12.64261009 4.96577837 6.48023477 2.76490207 0 1 C0 0.67 0 0.34 0 0 Z " fill="#DADADA" transform="translate(2,0)"/>
<path d="M0 0 C12.7821215 -0.32962491 25.29304542 0.67870163 38 2 C38.12503906 2.63550781 38.25007813 3.27101562 38.37890625 3.92578125 C38.80096589 6.17425004 38.80096589 6.17425004 40.9375 7.1875 C41.618125 7.455625 42.29875 7.72375 43 8 C43.66 8.33 44.32 8.66 45 9 C45 10.32 45 11.64 45 13 C44.34 13 43.68 13 43 13 C43.66 14.65 44.32 16.3 45 18 C42.69 17.01 40.38 16.02 38 15 C38 14.34 38 13.68 38 13 C35.69 13 33.38 13 31 13 C31.33 17.29 31.66 21.58 32 26 C28.19616653 24.73205551 27.99730186 23.35546712 26 20 C24.68036291 18.98199424 23.34990354 17.97751635 22 17 C22 16.34 22 15.68 22 15 C21.278125 14.71125 20.55625 14.4225 19.8125 14.125 C18.884375 13.75375 17.95625 13.3825 17 13 C16.0925 12.690625 15.185 12.38125 14.25 12.0625 C13.5075 11.711875 12.765 11.36125 12 11 C11.67 10.01 11.34 9.02 11 8 C16.07516443 7.15413926 20.84007285 7 26 7 C28.35608991 6.75011168 30.66130114 6.38978314 33 6 C27.14746066 4.0733376 21.50149807 3.43088045 15.375 2.9375 C13.52844345 2.78233796 11.68207971 2.62486037 9.8359375 2.46484375 C9.02688965 2.399021 8.2178418 2.33319824 7.38427734 2.26538086 C4.88230447 1.98689995 2.46052495 1.52725535 0 1 C0 0.67 0 0.34 0 0 Z " fill="#D9D9DA" transform="translate(0,54)"/>
<path d="M0 0 C2.375 0.625 2.375 0.625 5 2 C5.2475 2.94875 5.495 3.8975 5.75 4.875 C6.66025238 8.06910595 6.66025238 8.06910595 8.9765625 9.17578125 C10.57503332 9.85005477 12.18344023 10.5012425 13.80078125 11.12890625 C16.22796094 12.09029359 18.10886225 13.19108563 20 15 C20 15.66 20 16.32 20 17 C20.66 17 21.32 17 22 17 C21.34 19.31 20.68 21.62 20 24 C13.07 24 6.14 24 -1 24 C-1.02687433 20.37495101 -1.04677776 16.75009954 -1.0625 13.125 C-1.07087891 12.09246094 -1.07925781 11.05992188 -1.08789062 9.99609375 C-1.09111328 9.00996094 -1.09433594 8.02382812 -1.09765625 7.0078125 C-1.10289307 6.09660645 -1.10812988 5.18540039 -1.11352539 4.24658203 C-1 2 -1 2 0 0 Z " fill="#DDDDDD" transform="translate(1,69)"/>
<path d="M0 0 C5.62738165 2.09017033 9.43588052 4.13983708 13 9 C13.99 9.33 14.98 9.66 16 10 C16 10.66 16 11.32 16 12 C16.8353125 12.0928125 16.8353125 12.0928125 17.6875 12.1875 C20.99068042 13.3480769 22.71894733 15.40213446 25 18 C25 18.66 25 19.32 25 20 C16.09 20 7.18 20 -2 20 C-2 14.06 -2 8.12 -2 2 C-1.01 2 -0.02 2 1 2 C0.67 1.34 0.34 0.68 0 0 Z " fill="#EFEDED" transform="translate(67,73)"/>
<path d="M0 0 C10.1267085 2.25037967 10.1267085 2.25037967 13.89453125 4.71484375 C14.70470703 5.23626953 15.51488281 5.75769531 16.34960938 6.29492188 C17.16236328 6.83697266 17.97511719 7.37902344 18.8125 7.9375 C19.64458984 8.47568359 20.47667969 9.01386719 21.33398438 9.56835938 C23.5722827 11.02406101 25.79844709 12.48932519 28 14 C28.74725342 14.51248291 29.49450684 15.02496582 30.2644043 15.55297852 C31.12352417 16.26925415 31.12352417 16.26925415 32 17 C32 17.66 32 18.32 32 19 C32.66 19 33.32 19 34 19 C34.495 20.485 34.495 20.485 35 22 C28.30843363 21.31950173 23.64117092 19.95576471 17.8125 16.5625 C13.03816032 13.8457882 8.29626751 12.41731102 3 11 C2.67 16.61 2.34 22.22 2 28 C1.67 28 1.34 28 1 28 C0.67 18.76 0.34 9.52 0 0 Z " fill="#DFD8D9" transform="translate(61,0)"/>
<path d="M0 0 C3.66356562 0.85199201 4.83118195 1.80380606 7.3125 4.6875 C9.22487823 8.44142764 9.33242149 10.84473143 9 15 C7.68 15 6.36 15 5 15 C4.67 15.66 4.34 16.32 4 17 C4 16.34 4 15.68 4 15 C2.68 14.67 1.36 14.34 0 14 C0 12.35 0 10.7 0 9 C-1.65 9 -3.3 9 -5 9 C-5 9.99 -5 10.98 -5 12 C-3.68 12 -2.36 12 -1 12 C-0.01751476 16.0527516 0.08159574 19.83861737 0 24 C-2.75 23.875 -2.75 23.875 -6 23 C-9.28028507 19.18777681 -10.52581687 15.97892286 -11 11 C-9.68 11 -8.36 11 -7 11 C-7 10.01 -7 9.02 -7 8 C-8.32 8 -9.64 8 -11 8 C-11 7.34 -11 6.68 -11 6 C-9.68 6 -8.36 6 -7 6 C-7 5.34 -7 4.68 -7 4 C-7.99 3.67 -8.98 3.34 -10 3 C-7.2864816 -0.83084951 -4.40966574 -0.3801436 0 0 Z " fill="#464F5C" transform="translate(54,39)"/>
<path d="M0 0 C4.40879077 0.88175815 6.35742846 1.58700975 10 3.875 C10.825 4.38804688 11.65 4.90109375 12.5 5.4296875 C13.325 5.94789062 14.15 6.46609375 15 7 C18.68175765 9.27004076 22.39066707 11.16120319 26.328125 12.9375 C28 14 28 14 29 17 C19.43 17 9.86 17 0 17 C0 11.39 0 5.78 0 0 Z " fill="#EFEDED" transform="translate(0,18)"/>
<path d="M0 0 C2.31 0.33 4.62 0.66 7 1 C6.01 1.495 6.01 1.495 5 2 C5.33 2.66 5.66 3.32 6 4 C7.010625 4.0825 8.02125 4.165 9.0625 4.25 C13.37197634 4.71109623 15.86984158 6.88361323 19.10546875 9.625 C21.17764395 11.30901089 21.17764395 11.30901089 25 12 C25 15.3 25 18.6 25 22 C13.97058824 20.23529412 13.97058824 20.23529412 10 16 C10 15.34 10 14.68 10 14 C9.01 13.67 8.02 13.34 7 13 C5.578125 11.4765625 5.578125 11.4765625 4.25 9.625 C3.80140625 9.01914063 3.3528125 8.41328125 2.890625 7.7890625 C2 6 2 6 3 3 C2.34 3 1.68 3 1 3 C0.67 2.01 0.34 1.02 0 0 Z " fill="#EEEEEE" transform="translate(83,61)"/>
<path d="M0 0 C0.66 0 1.32 0 2 0 C2 0.99 2 1.98 2 3 C2.66 3 3.32 3 4 3 C4 3.66 4 4.32 4 5 C5.32 4.67 6.64 4.34 8 4 C8.77313045 9.9114744 9.14819277 15.1314592 8 21 C9.32 21.33 10.64 21.66 12 22 C11.360625 22.12375 10.72125 22.2475 10.0625 22.375 C9.381875 22.58125 8.70125 22.7875 8 23 C7.67 23.66 7.34 24.32 7 25 C6.34 25 5.68 25 5 25 C5 31.6 5 38.2 5 45 C4.67 45 4.34 45 4 45 C3.67 39.06 3.34 33.12 3 27 C2.67 27.66 2.34 28.32 2 29 C1.34 29 0.68 29 0 29 C0 30.65 0 32.3 0 34 C-0.99 33.67 -1.98 33.34 -3 33 C-4.6442351 28.06729471 -3.18615592 25.45975807 -1 21 C-0.01 21 0.98 21 2 21 C2 20.34 2 19.68 2 19 C1.01 19 0.02 19 -1 19 C-1 18.34 -1 17.68 -1 17 C0.32 17 1.64 17 3 17 C2.69078116 15.54096742 2.37751201 14.08279278 2.0625 12.625 C1.88847656 11.81289063 1.71445312 11.00078125 1.53515625 10.1640625 C1.07669307 7.970537 1.07669307 7.970537 0 6 C-0.039992 4.00039988 -0.04346799 1.99952758 0 0 Z " fill="#D2974B" transform="translate(60,37)"/>
<path d="M0 0 C8.58 0 17.16 0 26 0 C26 3.63 26 7.26 26 11 C20.78181822 10.34345288 15.78026166 9.30268973 10.6875 8 C9.97271484 7.82210938 9.25792969 7.64421875 8.52148438 7.4609375 C3.26779762 6.13389881 3.26779762 6.13389881 1 5 C0.67 3.35 0.34 1.7 0 0 Z " fill="#DBDBDB" transform="translate(82,0)"/>
<path d="M0 0 C0.24085834 4.09459181 -0.18743046 7.29247139 -2 11 C-6.5198717 13.01107387 -10.47143459 13.2175201 -15.375 13.125 C-16.62023437 13.10695313 -17.86546875 13.08890625 -19.1484375 13.0703125 C-20.55996094 13.03550781 -20.55996094 13.03550781 -22 13 C-22.33 11.35 -22.66 9.7 -23 8 C-22.43410156 7.87882812 -21.86820312 7.75765625 -21.28515625 7.6328125 C-20.55167969 7.46523438 -19.81820312 7.29765625 -19.0625 7.125 C-17.96615234 6.88136719 -17.96615234 6.88136719 -16.84765625 6.6328125 C-14.79299706 6.17038477 -14.79299706 6.17038477 -14 4 C-13.34 4 -12.68 4 -12 4 C-12 3.34 -12 2.68 -12 2 C-7.8794254 0.00214565 -4.54805635 -0.17835515 0 0 Z " fill="#DADADB" transform="translate(108,21)"/>
<path d="M0 0 C1.65 0 3.3 0 5 0 C5 1.65 5 3.3 5 5 C6.32 5.33 7.64 5.66 9 6 C9 6.66 9 7.32 9 8 C10.32 8 11.64 8 13 8 C13 8.66 13 9.32 13 10 C12.01 10 11.02 10 10 10 C9.67 12.31 9.34 14.62 9 17 C8.34 17 7.68 17 7 17 C7.33 18.32 7.66 19.64 8 21 C6.02 20.67 4.04 20.34 2 20 C2 20.66 2 21.32 2 22 C0.35 22 -1.3 22 -3 22 C-3.33 23.32 -3.66 24.64 -4 26 C-4.66 23.69 -5.32 21.38 -6 19 C-5.34 19 -4.68 19 -4 19 C-4 17.68 -4 16.36 -4 15 C-4.99 14.67 -5.98 14.34 -7 14 C-6.360625 13.87625 -5.72125 13.7525 -5.0625 13.625 C-4.381875 13.41875 -3.70125 13.2125 -3 13 C-2.67 12.34 -2.34 11.68 -2 11 C-1.67 11.99 -1.34 12.98 -1 14 C1.97 14.495 1.97 14.495 5 15 C4.67 11.04 4.34 7.08 4 3 C2.68 3 1.36 3 0 3 C0 2.01 0 1.02 0 0 Z " fill="#BE8F3A" transform="translate(49,48)"/>
<path d="M0 0 C3.91593446 0.78318689 7.36406635 2.39179858 11 4 C11 4.66 11 5.32 11 6 C11.99 6 12.98 6 14 6 C14.33 7.32 14.66 8.64 15 10 C24.9 10 34.8 10 45 10 C45 10.33 45 10.66 45 11 C29.77228931 12.06750092 15.15840641 11.82741892 0 10 C0.57584432 7.61435923 1.22227595 5.33317216 2 3 C1.34 3 0.68 3 0 3 C0 2.01 0 1.02 0 0 Z " fill="#ECD1CE" transform="translate(63,29)"/>
<path d="M0 0 C0.66 0 1.32 0 2 0 C2 0.99 2 1.98 2 3 C2.763125 2.814375 3.52625 2.62875 4.3125 2.4375 C7 2 7 2 10 3 C10 3.66 10 4.32 10 5 C8.68 5 7.36 5 6 5 C6 5.66 6 6.32 6 7 C7.32 7 8.64 7 10 7 C10 7.99 10 8.98 10 10 C8.68 10 7.36 10 6 10 C7.32 13.96 8.64 17.92 10 22 C4 21 4 21 2 20 C1.59270772 17.67843403 1.25561323 15.3431213 1 13 C1.66 13 2.32 13 3 13 C3 12.34 3 11.68 3 11 C2.01 10.67 1.02 10.34 0 10 C0 6.7 0 3.4 0 0 Z " fill="#DB9914" transform="translate(37,40)"/>
<path d="M0 0 C0.33 1.32 0.66 2.64 1 4 C1.66 4 2.32 4 3 4 C2.37240135 6.92879371 1.41377341 9.36095629 0 12 C0 11.01 0 10.02 0 9 C-0.66 9 -1.32 9 -2 9 C-2 10.65 -2 12.3 -2 14 C-4.97 13.505 -4.97 13.505 -8 13 C-8 12.34 -8 11.68 -8 11 C-12.71038103 11.45292125 -15.32413099 12.08465561 -19 15 C-20.32 15 -21.64 15 -23 15 C-23 14.01 -23 13.02 -23 12 C-21.35 11.67 -19.7 11.34 -18 11 C-17.67 9.02 -17.34 7.04 -17 5 C-17.66 4.67 -18.32 4.34 -19 4 C-18.01 3.67 -17.02 3.34 -16 3 C-16 3.66 -16 4.32 -16 5 C-15.34 5 -14.68 5 -14 5 C-14 5.99 -14 6.98 -14 8 C-11.36 8 -8.72 8 -6 8 C-5.67 8.66 -5.34 9.32 -5 10 C-4.20046862 6.71303767 -3.90341064 5.28976808 -5 2 C-2.525 2.495 -2.525 2.495 0 3 C0 2.01 0 1.02 0 0 Z " fill="#C68920" transform="translate(62,28)"/>
<path d="M0 0 C10.48925548 -0.33358056 20.60886221 0.69381882 31 2 C31 2.33 31 2.66 31 3 C22.95787245 3.16677223 15.01396246 2.6466598 7 2 C7.01160156 2.81984375 7.02320312 3.6396875 7.03515625 4.484375 C7.04417969 5.56203125 7.05320312 6.6396875 7.0625 7.75 C7.07410156 8.81734375 7.08570312 9.8846875 7.09765625 10.984375 C7.01510087 13.53368501 6.74617558 15.57933591 6 18 C7.918125 17.938125 7.918125 17.938125 9.875 17.875 C15.08872856 17.85842217 19.94007672 18.81688642 25 20 C25 20.33 25 20.66 25 21 C17.96517526 21.23668569 11.8165735 20.7879537 5 19 C3.875 14.25 3.875 14.25 5 12 C4.91348369 10.45386986 4.75997364 8.91090613 4.5625 7.375 C4.40974609 6.14910156 4.40974609 6.14910156 4.25390625 4.8984375 C4.17011719 4.27195312 4.08632812 3.64546875 4 3 C3.01 3 2.02 3 1 3 C0.67 2.01 0.34 1.02 0 0 Z " fill="#B72520" transform="translate(63,39)"/>
<path d="M0 0 C3.3 0.33 6.6 0.66 10 1 C10.98248524 5.0527516 11.08159574 8.83861737 11 13 C8.25 12.875 8.25 12.875 5 12 C1.71971493 8.18777681 0.47418313 4.97892286 0 0 Z " fill="#3B5A53" transform="translate(43,50)"/>
<path d="M0 0 C1.74991334 -0.02715383 3.49994945 -0.04646551 5.25 -0.0625 C6.71179688 -0.07990234 6.71179688 -0.07990234 8.203125 -0.09765625 C11 0 11 0 15 1 C15 4.3 15 7.6 15 11 C11.06683414 9.86375209 8.8020149 8.9140955 6 6 C3.71157627 4.57231222 1.36793812 3.29566426 -1 2 C-0.67 1.34 -0.34 0.68 0 0 Z " fill="#F1F0F0" transform="translate(93,61)"/>
<path d="M0 0 C0.33 0 0.66 0 1 0 C1.79725902 7.36040917 2.12886183 14.59760355 2 22 C0.68 22 -0.64 22 -2 22 C-1.01 24.31 -0.02 26.62 1 29 C-8.0598059 29.12224626 -16.97746114 28.83930594 -26 28 C-26 27.67 -26 27.34 -26 27 C-19.07 27 -12.14 27 -5 27 C-5.33 26.01 -5.66 25.02 -6 24 C-4.6875 22.5 -4.6875 22.5 -3 21 C-2.01 21 -1.02 21 0 21 C0 14.07 0 7.14 0 0 Z " fill="#F7CECC" transform="translate(41,8)"/>
<path d="M0 0 C6.27 0 12.54 0 19 0 C19 2.64 19 5.28 19 8 C16.03664835 8 14.8333467 7.64533932 12.20703125 6.46875 C11.49482422 6.15292969 10.78261719 5.83710937 10.04882812 5.51171875 C9.31083984 5.17785156 8.57285156 4.84398437 7.8125 4.5 C7.06291016 4.16613281 6.31332031 3.83226562 5.54101562 3.48828125 C3.69180144 2.66379085 1.84560434 1.83253959 0 1 C0 0.67 0 0.34 0 0 Z " fill="#EDEBEB" transform="translate(23,0)"/>
<path d="M0 0 C0.66 0 1.32 0 2 0 C2 0.99 2 1.98 2 3 C2.66 3 3.32 3 4 3 C4 3.66 4 4.32 4 5 C5.32 4.67 6.64 4.34 8 4 C8.08096803 5.45742463 8.13917774 6.91612807 8.1875 8.375 C8.22230469 9.18710937 8.25710937 9.99921875 8.29296875 10.8359375 C8.19628906 11.55007812 8.09960938 12.26421875 8 13 C7.01 13.66 6.02 14.32 5 15 C4.27617533 17.05925139 4.27617533 17.05925139 4 19 C2.35 19 0.7 19 -1 19 C-1 18.34 -1 17.68 -1 17 C0.32 17 1.64 17 3 17 C2.69078116 15.54096742 2.37751201 14.08279278 2.0625 12.625 C1.80146484 11.40683594 1.80146484 11.40683594 1.53515625 10.1640625 C1.07669307 7.970537 1.07669307 7.970537 0 6 C-0.039992 4.00039988 -0.04346799 1.99952758 0 0 Z " fill="#DEB11A" transform="translate(60,37)"/>
<path d="M0 0 C10.46950629 1.72797677 10.46950629 1.72797677 15 5 C16.093125 5.680625 17.18625 6.36125 18.3125 7.0625 C19.6428125 8.0215625 19.6428125 8.0215625 21 9 C21 9.66 21 10.32 21 11 C17.625 11.1875 17.625 11.1875 14 11 C13.34 10.01 12.68 9.02 12 8 C9.1979971 6.60113097 6.33493606 5.45838758 3.43359375 4.28125 C1 3 1 3 0 0 Z " fill="#DBDBDB" transform="translate(15,24)"/>
<path d="M0 0 C8.82819456 -0.21918276 17.52022552 -0.03146364 26.3125 0.8125 C27.53900269 0.91763916 27.53900269 0.91763916 28.7902832 1.02490234 C32.96174446 1.46418812 35.24692983 1.81490794 38 5 C37.67 5.99 37.34 6.98 37 8 C35.95489258 7.28577881 35.95489258 7.28577881 34.88867188 6.55712891 C31.68603436 4.83075788 29.38727518 4.43408678 25.78125 4.0859375 C24.60175781 3.96476562 23.42226563 3.84359375 22.20703125 3.71875 C20.98371094 3.6053125 19.76039062 3.491875 18.5 3.375 C16.07274134 3.13457606 13.64565016 2.89245369 11.21875 2.6484375 C9.6090332 2.49640869 9.6090332 2.49640869 7.96679688 2.34130859 C5.26511478 2.03049954 2.65579356 1.57796062 0 1 C0 0.67 0 0.34 0 0 Z " fill="#F3D2D4" transform="translate(0,54)"/>
<path d="M0 0 C4.62 0 9.24 0 14 0 C14 2.31 14 4.62 14 7 C12.02 7 10.04 7 8 7 C8 6.34 8 5.68 8 5 C6.8553125 4.814375 6.8553125 4.814375 5.6875 4.625 C3 4 3 4 0 2 C0 1.34 0 0.68 0 0 Z " fill="#E9E9E9" transform="translate(94,86)"/>
<path d="M0 0 C10.89 0 21.78 0 33 0 C33 0.33 33 0.66 33 1 C23.65741704 2.12998844 14.39146903 2.09908936 5 2 C5 2.66 5 3.32 5 4 C2.69 4 0.38 4 -2 4 C-1.67 6.64 -1.34 9.28 -1 12 C-1.66 12 -2.32 12 -3 12 C-3 9.03 -3 6.06 -3 3 C-2.34 3 -1.68 3 -1 3 C-0.67 2.01 -0.34 1.02 0 0 Z " fill="#EFD1CD" transform="translate(68,59)"/>
<path d="M0 0 C0.33 0 0.66 0 1 0 C1 3.3 1 6.6 1 10 C-3.05606165 9.53199289 -6.46588679 9.12046792 -10 7 C-10.33 7.33 -10.66 7.66 -11 8 C-12.65 8 -14.3 8 -16 8 C-16 12.62 -16 17.24 -16 22 C-16.33 22 -16.66 22 -17 22 C-17 17.05 -17 12.1 -17 7 C-15.35 7 -13.7 7 -12 7 C-12 6.34 -12 5.68 -12 5 C-8.28400809 4.79913557 -7.22791555 4.8480563 -4 7 C-3.67 5.68 -3.34 4.36 -3 3 C-2.34 3 -1.68 3 -1 3 C-0.67 2.01 -0.34 1.02 0 0 Z " fill="#B6230F" transform="translate(63,63)"/>
<path d="M0 0 C0.99 0.33 1.98 0.66 3 1 C2.98839844 1.59683594 2.97679687 2.19367188 2.96484375 2.80859375 C2.87373444 11.56810313 3.42650119 20.26438425 4 29 C3.34 29.33 2.68 29.66 2 30 C-0.5035281 20.0529464 -0.18974296 10.17233107 0 0 Z " fill="#BE2A30" transform="translate(42,0)"/>
<path d="M0 0 C6.29040653 -0.83872087 9.89715674 1.32393572 15.27734375 4.4765625 C17.67309786 5.81708489 19.91201304 6.80100723 22.5 7.6875 C25.73419241 8.90032215 26.80027601 9.56554937 29 12 C28.67 12.66 28.34 13.32 28 14 C27.40316406 13.64808594 26.80632813 13.29617188 26.19140625 12.93359375 C17.77347592 8.14300338 8.99119502 4.56274785 0 1 C0 0.67 0 0.34 0 0 Z " fill="#E6E6E6" transform="translate(12,1)"/>
<path d="M0 0 C2.97 0.33 5.94 0.66 9 1 C10.42857143 9.57142857 10.42857143 9.57142857 8 13 C7.34 12.67 6.68 12.34 6 12 C6.33 8.7 6.66 5.4 7 2 C5.35 2.66 3.7 3.32 2 4 C2.33 5.65 2.66 7.3 3 9 C3.99 9 4.98 9 6 9 C6 9.66 6 10.32 6 11 C5 12 5 12 2 13 C-0.91360308 8.22169095 -1.19876651 5.44893869 0 0 Z " fill="#C1750D" transform="translate(47,21)"/>
<path d="M0 0 C1.32 0.33 2.64 0.66 4 1 C4 1.99 4 2.98 4 4 C4.928125 4.4640625 4.928125 4.4640625 5.875 4.9375 C7.25 5.625 8.625 6.3125 10 7 C10 8.32 10 9.64 10 11 C9.34 11 8.68 11 8 11 C8.66 12.65 9.32 14.3 10 16 C7.69 15.01 5.38 14.02 3 13 C3 12.34 3 11.68 3 11 C3.66 11 4.32 11 5 11 C5 10.01 5 9.02 5 8 C4.34 8 3.68 8 3 8 C2.690625 7.05125 2.38125 6.1025 2.0625 5.125 C1.12605258 2.13919592 1.12605258 2.13919592 0 0 Z " fill="#DED7CB" transform="translate(35,56)"/>
<path d="M0 0 C0.33 0 0.66 0 1 0 C1.10834375 4.44209357 0.70173653 8.61414671 0 13 C1.32 13.33 2.64 13.66 4 14 C3.360625 14.12375 2.72125 14.2475 2.0625 14.375 C1.381875 14.58125 0.70125 14.7875 0 15 C-0.33 15.66 -0.66 16.32 -1 17 C-2.32 16.67 -3.64 16.34 -5 16 C-5.33 14.35 -5.66 12.7 -6 11 C-5.34 10.67 -4.68 10.34 -4 10 C-4 8.68 -4 7.36 -4 6 C-3.01 5.67 -2.02 5.34 -1 5 C-0.67 3.35 -0.34 1.7 0 0 Z " fill="#D4A533" transform="translate(68,45)"/>
<path d="M0 0 C0.33 0.66 0.66 1.32 1 2 C1.66 2 2.32 2 3 2 C3 2.99 3 3.98 3 5 C3.99 5.33 4.98 5.66 6 6 C6.66 6.66 7.32 7.32 8 8 C6.906875 8.28875 5.81375 8.5775 4.6875 8.875 C0.95986155 9.81893204 0.95986155 9.81893204 -2 12 C-3.32 12 -4.64 12 -6 12 C-6 11.01 -6 10.02 -6 9 C-4.35 8.67 -2.7 8.34 -1 8 C-0.67 6.02 -0.34 4.04 0 2 C-0.66 1.67 -1.32 1.34 -2 1 C-1.34 0.67 -0.68 0.34 0 0 Z " fill="#BC9219" transform="translate(45,31)"/>
<path d="M0 0 C0 0.66 0 1.32 0 2 C-1.65 2.33 -3.3 2.66 -5 3 C-5 4.32 -5 5.64 -5 7 C-4.01 7 -3.02 7 -2 7 C-2 7.66 -2 8.32 -2 9 C-2.99 9 -3.98 9 -5 9 C-5 9.66 -5 10.32 -5 11 C-5.66 11 -6.32 11 -7 11 C-7 10.01 -7 9.02 -7 8 C-8.32 8 -9.64 8 -11 8 C-11 7.34 -11 6.68 -11 6 C-9.68 6 -8.36 6 -7 6 C-7 5.34 -7 4.68 -7 4 C-7.99 3.67 -8.98 3.34 -10 3 C-7.29536552 -0.8183075 -4.37912428 -0.24787496 0 0 Z " fill="#A22320" transform="translate(54,39)"/>
<path d="M0 0 C0.33 0 0.66 0 1 0 C0.979375 1.216875 0.95875 2.43375 0.9375 3.6875 C0.92855249 6.21964512 1.0625842 8.31292098 1.5625 10.8125 C2 13 2 13 1 16 C0.01 16.33 -0.98 16.66 -2 17 C-2 16.34 -2 15.68 -2 15 C-3.65 14.67 -5.3 14.34 -7 14 C-7 13.67 -7 13.34 -7 13 C-5.35 12.67 -3.7 12.34 -2 12 C-2.66 11.01 -3.32 10.02 -4 9 C-4 8.01 -4 7.02 -4 6 C-2.68 6 -1.36 6 0 6 C0 4.02 0 2.04 0 0 Z " fill="#CBA350" transform="translate(43,24)"/>
<path d="M0 0 C2 0.25 2 0.25 4 1 C4.33 1.99 4.66 2.98 5 4 C6.65 4.33 8.3 4.66 10 5 C10 5.33 10 5.66 10 6 C7.36 6 4.72 6 2 6 C1.67 7.98 1.34 9.96 1 12 C0.34 12 -0.32 12 -1 12 C-1.02687279 10.18757948 -1.04633715 8.37504767 -1.0625 6.5625 C-1.07410156 5.55316406 -1.08570313 4.54382813 -1.09765625 3.50390625 C-1 1 -1 1 0 0 Z " fill="#BD140B" transform="translate(46,16)"/>
<path d="M0 0 C3.69287153 0.90270193 5.55368289 1.40491051 7.875 4.5 C9 7 9 7 9 9 C3.25 8.25 3.25 8.25 1 6 C0.60235737 4.01178687 0.26224651 2.01055661 0 0 Z " fill="#E8E8E9" transform="translate(69,62)"/>
<path d="M0 0 C2.0625 0.4375 2.0625 0.4375 4 1 C4 1.66 4 2.32 4 3 C2.68 3 1.36 3 0 3 C0 3.66 0 4.32 0 5 C1.32 5 2.64 5 4 5 C4 5.99 4 6.98 4 8 C2.68 8 1.36 8 0 8 C0.66 10.64 1.32 13.28 2 16 C-0.59540762 14.70229619 -0.98201835 13.69137615 -2 11 C-2.01171875 8.45703125 -2.01171875 8.45703125 -1.6875 5.8125 C-1.58824219 4.93207031 -1.48898438 4.05164062 -1.38671875 3.14453125 C-1 1 -1 1 0 0 Z " fill="#D4AD5E" transform="translate(43,42)"/>
<path d="M0 0 C1.32 0.66 2.64 1.32 4 2 C4 2.66 4 3.32 4 4 C4.66 4 5.32 4 6 4 C6 4.99 6 5.98 6 7 C3.03 6.67 0.06 6.34 -3 6 C-2.67 5.01 -2.34 4.02 -2 3 C-2.33 2.67 -2.66 2.34 -3 2 C-2.01 1.34 -1.02 0.68 0 0 Z " fill="#D3D3D4" transform="translate(34,60)"/>
<path d="M0 0 C2.475 0.99 2.475 0.99 5 2 C5 3.65 5 5.3 5 7 C3.35 7 1.7 7 0 7 C-0.33 8.32 -0.66 9.64 -1 11 C-1.66 8.69 -2.32 6.38 -3 4 C-1.68 4 -0.36 4 1 4 C0.67 2.68 0.34 1.36 0 0 Z " fill="#D69E2B" transform="translate(46,63)"/>
<path d="M0 0 C0 1.98 0 3.96 0 6 C-1.98 6 -3.96 6 -6 6 C-6 5.34 -6 4.68 -6 4 C-6.66 4 -7.32 4 -8 4 C-7.67 3.01 -7.34 2.02 -7 1 C-1.125 0 -1.125 0 0 0 Z " fill="#F1F1F1" transform="translate(108,87)"/>
<path d="M0 0 C0.99 0.33 1.98 0.66 3 1 C3 2.32 3 3.64 3 5 C3.99 4.67 4.98 4.34 6 4 C6.66 4.33 7.32 4.66 8 5 C8.625 7.0625 8.625 7.0625 9 9 C3.25 8.125 3.25 8.125 1 7 C0.59270772 4.67843403 0.25561323 2.3431213 0 0 Z " fill="#D8A72B" transform="translate(38,53)"/>
<path d="M0 0 C3.27233819 0.87262352 5.49087971 1.47390904 7.875 3.9375 C9 6 9 6 9 9 C5.4213696 7.34832443 2.25179812 5.21713508 -1 3 C-0.67 2.01 -0.34 1.02 0 0 Z " fill="#ECECEA" transform="translate(32,20)"/>
<path d="M0 0 C2.00720923 0.28674418 4.0085944 0.61866701 6 1 C6.33 3.31 6.66 5.62 7 8 C5.25 7.875 5.25 7.875 3 7 C0.75 3.9375 0.75 3.9375 -1 1 C-0.67 0.67 -0.34 0.34 0 0 Z " fill="#183B62" transform="translate(47,50)"/>
<path d="M0 0 C5.37305699 -0.44041451 5.37305699 -0.44041451 8 0 C10 2.5 10 2.5 11 5 C7.125 3.125 7.125 3.125 6 2 C5.67 2.99 5.34 3.98 5 5 C3.68 5 2.36 5 1 5 C0.67 3.35 0.34 1.7 0 0 Z " fill="#787780" transform="translate(48,41)"/>
<path d="M0 0 C3 1.75 3 1.75 6 4 C6 5.32 6 6.64 6 8 C4.35 8 2.7 8 1 8 C1 7.34 1 6.68 1 6 C0.34 6 -0.32 6 -1 6 C-0.67 4.02 -0.34 2.04 0 0 Z " fill="#183D64" transform="translate(53,42)"/>
<path d="M0 0 C1.98 0 3.96 0 6 0 C6.33 0.99 6.66 1.98 7 3 C7.66 3 8.32 3 9 3 C8.67 3.99 8.34 4.98 8 6 C4.5625 4.6875 4.5625 4.6875 1 3 C0.67 2.01 0.34 1.02 0 0 Z " fill="#E3E5E3" transform="translate(77,61)"/>
<path d="M0 0 C0.66 0.33 1.32 0.66 2 1 C2.5625 2.875 2.5625 2.875 3 5 C3.33 5.99 3.66 6.98 4 8 C2.35 8 0.7 8 -1 8 C-1.66 6.35 -2.32 4.7 -3 3 C-2.01 2.01 -1.02 1.02 0 0 Z " fill="#ECDFCE" transform="translate(38,29)"/>
<path d="M0 0 C1.65 0 3.3 0 5 0 C5 1.65 5 3.3 5 5 C5.99 5.33 6.98 5.66 8 6 C8 6.66 8 7.32 8 8 C6.68 8 5.36 8 4 8 C4 6.35 4 4.7 4 3 C2.68 3 1.36 3 0 3 C0 2.01 0 1.02 0 0 Z " fill="#A197AE" transform="translate(49,48)"/>
<path d="M0 0 C0.33 0 0.66 0 1 0 C1 2.64 1 5.28 1 8 C-0.65 7.67 -2.3 7.34 -4 7 C-3.67 5.68 -3.34 4.36 -3 3 C-2.34 3 -1.68 3 -1 3 C-0.67 2.01 -0.34 1.02 0 0 Z " fill="#BB5F14" transform="translate(63,63)"/>
<path d="M0 0 C0.33 0.66 0.66 1.32 1 2 C2.32 2 3.64 2 5 2 C5 2.66 5 3.32 5 4 C4.01 4 3.02 4 2 4 C1.67 5.65 1.34 7.3 1 9 C0.67 9 0.34 9 0 9 C0 7.35 0 5.7 0 4 C-0.99 4 -1.98 4 -3 4 C-3 3.34 -3 2.68 -3 2 C-2.01 2 -1.02 2 0 2 C0 1.34 0 0.68 0 0 Z " fill="#A62620" transform="translate(57,54)"/>
<path d="M0 0 C4.50802601 1.25805377 7.4912812 2.90407165 11 6 C10.67 6.99 10.34 7.98 10 9 C8.33043913 7.69118353 6.66441696 6.37785174 5 5.0625 C4.071875 4.33160156 3.14375 3.60070312 2.1875 2.84765625 C1.465625 2.23792969 0.74375 1.62820312 0 1 C0 0.67 0 0.34 0 0 Z " fill="#DCDCDC" transform="translate(21,79)"/>
<path d="M0 0 C1.093125 0.0825 2.18625 0.165 3.3125 0.25 C3.3125 0.91 3.3125 1.57 3.3125 2.25 C1.6625 2.58 0.0125 2.91 -1.6875 3.25 C-1.6875 3.91 -1.6875 4.57 -1.6875 5.25 C-3.3375 4.92 -4.9875 4.59 -6.6875 4.25 C-4.79150483 0.68106792 -4.16790733 0.28256999 0 0 Z " fill="#5B4330" transform="translate(50.6875,38.75)"/>
<path d="M0 0 C1.2065625 0.0309375 1.2065625 0.0309375 2.4375 0.0625 C2.7675 0.7225 3.0975 1.3825 3.4375 2.0625 C4.4275 2.3925 5.4175 2.7225 6.4375 3.0625 C6.1075 4.0525 5.7775 5.0425 5.4375 6.0625 C3 5.6875 3 5.6875 0.4375 5.0625 C0.1075 4.4025 -0.2225 3.7425 -0.5625 3.0625 C-1.5525 2.4025 -2.5425 1.7425 -3.5625 1.0625 C-2.5625 0.0625 -2.5625 0.0625 0 0 Z " fill="#C19F26" transform="translate(53.5625,35.9375)"/>
<path d="M0 0 C0.33 0.66 0.66 1.32 1 2 C1.66 2 2.32 2 3 2 C3 2.99 3 3.98 3 5 C3.99 5.33 4.98 5.66 6 6 C4.02 6.66 2.04 7.32 0 8 C-1.24546405 5.50907189 -0.7767578 4.58919267 0 2 C-0.66 1.67 -1.32 1.34 -2 1 C-1.34 0.67 -0.68 0.34 0 0 Z " fill="#B68808" transform="translate(45,31)"/>
<path d="M0 0 C1.46224799 0.42423244 2.91973412 0.86490245 4.375 1.3125 C5.18710938 1.55613281 5.99921875 1.79976562 6.8359375 2.05078125 C9 3 9 3 11 6 C7.45028204 5.39147692 4.23306391 4.61653196 1 3 C0.67 2.01 0.34 1.02 0 0 Z " fill="#DFDFDF" transform="translate(64,18)"/>
<path d="M0 0 C1.32 0.33 2.64 0.66 4 1 C3.67 2.98 3.34 4.96 3 7 C2.01 7 1.02 7 0 7 C0 4.69 0 2.38 0 0 Z " fill="#D9B20D" transform="translate(38,42)"/>
<path d="M0 0 C0.66 0 1.32 0 2 0 C2.04241723 2.33294775 2.04092937 4.66702567 2 7 C1 8 1 8 -1.5625 8.0625 C-2.366875 8.041875 -3.17125 8.02125 -4 8 C-4 7.34 -4 6.68 -4 6 C-2.68 6 -1.36 6 0 6 C0 4.02 0 2.04 0 0 Z " fill="#D8BC65" transform="translate(63,48)"/>
<path d="M0 0 C4 1 4 1 5.8125 2.8125 C7 5 7 5 6 9 C4.02 6.03 2.04 3.06 0 0 Z " fill="#25463F" transform="translate(55,40)"/>
<path d="M0 0 C0.99 0.99 1.98 1.98 3 3 C2.01 3.495 2.01 3.495 1 4 C1 4.66 1 5.32 1 6 C1.66 6.33 2.32 6.66 3 7 C2.34 7.66 1.68 8.32 1 9 C0.67 8.01 0.34 7.02 0 6 C-0.66 5.67 -1.32 5.34 -2 5 C-1.34 3.35 -0.68 1.7 0 0 Z " fill="#DDA918" transform="translate(56,30)"/>
<path d="M0 0 C4.875 1.75 4.875 1.75 6 4 C1.38 4 -3.24 4 -8 4 C-8 3.67 -8 3.34 -8 3 C-3.545 2.505 -3.545 2.505 1 2 C0.67 1.34 0.34 0.68 0 0 Z " fill="#F3DCDE" transform="translate(8,31)"/>
<path d="M0 0 C0.33 0 0.66 0 1 0 C1 2.31 1 4.62 1 7 C-0.32 7 -1.64 7 -3 7 C-3.33 7.66 -3.66 8.32 -4 9 C-4 8.34 -4 7.68 -4 7 C-4.99 6.67 -5.98 6.34 -7 6 C-4.50935112 5.31292445 -2.62113708 5 0 5 C0 3.35 0 1.7 0 0 Z " fill="#715943" transform="translate(62,47)"/>
<path d="M0 0 C0.93423645 3.01031744 1.04449911 3.86650268 0 7 C-0.99 7.33 -1.98 7.66 -3 8 C-3 7.34 -3 6.68 -3 6 C-4.65 5.67 -6.3 5.34 -8 5 C-8 4.67 -8 4.34 -8 4 C-5.69 4 -3.38 4 -1 4 C-0.67 2.68 -0.34 1.36 0 0 Z " fill="#DA9F3A" transform="translate(44,33)"/>
<path d="M0 0 C2 1.1875 2 1.1875 4 3 C4.25 5.6875 4.25 5.6875 4 8 C3.67 7.34 3.34 6.68 3 6 C0.98330173 4.86649466 0.98330173 4.86649466 -1 4 C-0.67 2.68 -0.34 1.36 0 0 Z " fill="#EBECEC" transform="translate(37,15)"/>
<path d="M0 0 C0.2475 0.5775 0.495 1.155 0.75 1.75 C2.16683317 4.3002997 3.87627537 6.01785701 6 8 C4.02 8 2.04 8 0 8 C0 5.36 0 2.72 0 0 Z " fill="#E6BEBF" transform="translate(65,85)"/>
<path d="M0 0 C1.32 0.33 2.64 0.66 4 1 C4 2.65 4 4.3 4 6 C1.03 5.505 1.03 5.505 -2 5 C-1.34 4.34 -0.68 3.68 0 3 C0 2.01 0 1.02 0 0 Z " fill="#596E63" transform="translate(50,57)"/>
<path d="M0 0 C0.33 0 0.66 0 1 0 C1.32613618 4.67461851 0.70582788 7.16674383 -2 11 C-2.66 10.67 -3.32 10.34 -4 10 C-4 8.68 -4 7.36 -4 6 C-3.01 5.67 -2.02 5.34 -1 5 C-0.67 3.35 -0.34 1.7 0 0 Z " fill="#D38623" transform="translate(68,45)"/>
<path d="M0 0 C2.40820361 2.40820361 2.68097423 3.65022937 3 7 C2.0625 9.3125 2.0625 9.3125 1 11 C0.34 10.67 -0.32 10.34 -1 10 C-0.67 6.7 -0.34 3.4 0 0 Z " fill="#B66E0C" transform="translate(54,23)"/>
<path d="M0 0 C0.33 0.66 0.66 1.32 1 2 C-1.64 2 -4.28 2 -7 2 C-7 1.34 -7 0.68 -7 0 C-4.30234372 -1.34882814 -2.84835666 -0.80338265 0 0 Z " fill="#E3E5E0" transform="translate(33,59)"/>
<path d="M0 0 C1.32 0.66 2.64 1.32 4 2 C4 2.99 4 3.98 4 5 C4.99 5.33 5.98 5.66 7 6 C5.68 6.33 4.36 6.66 3 7 C3 6.01 3 5.02 3 4 C1.68 3.67 0.36 3.34 -1 3 C-0.67 2.01 -0.34 1.02 0 0 Z " fill="#DEA818" transform="translate(45,29)"/>
<path d="M0 0 C-2.26185454 2.26185454 -3.96983561 3.03921617 -7 4 C-7.99 3.67 -8.98 3.34 -10 3 C-6.68152292 -0.06320961 -4.44849969 -0.3033068 0 0 Z " fill="#E7E7E7" transform="translate(108,0)"/>
<path d="M0 0 C1.32 0 2.64 0 4 0 C4 1.98 4 3.96 4 6 C3.01 5.67 2.02 5.34 1 5 C0.67 3.35 0.34 1.7 0 0 Z " fill="#DDA724" transform="translate(56,65)"/>
<path d="M0 0 C1.32 0.33 2.64 0.66 4 1 C4 1.99 4 2.98 4 4 C5.32 4.66 6.64 5.32 8 6 C7.01 6.495 7.01 6.495 6 7 C1.125 2.25 1.125 2.25 0 0 Z " fill="#EFD5C6" transform="translate(35,56)"/>
</svg>
