<?xml version="1.0" encoding="UTF-8"?>
<svg version="1.1" xmlns="http://www.w3.org/2000/svg" width="228" height="80">
<path d="M0 0 C75.24 0 150.48 0 228 0 C228 26.4 228 52.8 228 80 C152.76 80 77.52 80 0 80 C0 53.6 0 27.2 0 0 Z " fill="#1A2126" transform="translate(0,0)"/>
<path d="M0 0 C2.6875 1.6875 2.6875 1.6875 4 4 C3.75 6.5 3.75 6.5 3 9 C3 10.32 3 11.64 3 13 C3.66 13 4.32 13 5 13 C5.70125 11.96875 6.4025 10.9375 7.125 9.875 C9.99621795 5.69171213 13.5244718 2.42906401 18 0 C19.32 0 20.64 0 22 0 C26.40774487 9.41002278 26.40774487 9.41002278 27 14 C27.66 14 28.32 14 29 14 C29.103125 12.989375 29.20625 11.97875 29.3125 10.9375 C30.03704767 6.78781792 31.22269266 3.78643737 33 0 C35.475 0.495 35.475 0.495 38 1 C39.60897228 5.82691683 38.07117807 8.52625537 36 13 C36 13.99 36 14.98 36 16 C37.0725 15.95875 38.145 15.9175 39.25 15.875 C42.65747485 15.9885825 44.20739631 16.21273364 47 18 C47.061875 16.948125 47.12375 15.89625 47.1875 14.8125 C48.17038668 10.20049326 49.44379731 9.01504141 53 6 C53.57621094 5.45859375 54.15242188 4.9171875 54.74609375 4.359375 C59.48233061 0 59.48233061 0 64 0 C64 0.66 64 1.32 64 2 C64.66 2 65.32 2 66 2 C66.20496094 2.62648437 66.40992187 3.25296875 66.62109375 3.8984375 C66.89050781 4.71570312 67.15992187 5.53296875 67.4375 6.375 C67.70433594 7.18710937 67.97117187 7.99921875 68.24609375 8.8359375 C68.95179729 11.01031799 68.95179729 11.01031799 70 13 C70.63615234 12.22076172 70.63615234 12.22076172 71.28515625 11.42578125 C75.15509774 6.82437829 78.78738361 3.04888883 84 0 C86.96866843 0.36203274 87.84016672 0.84016672 90 3 C89.86328125 4.96875 89.86328125 4.96875 89 7 C87.29296875 8.34375 87.29296875 8.34375 85.1875 9.5 C81.98922976 11.35465222 79.47857375 13.21160454 77 16 C79.64 16 82.28 16 85 16 C84.505 13.525 84.505 13.525 84 11 C86.0625 9.75 86.0625 9.75 89 9 C91.60906369 10.04578173 93.63966471 11.42644314 96 13 C96.0825 12.34 96.165 11.68 96.25 11 C97.24759791 7.00960837 99.07166683 3.61450357 101 0 C105.875 1.875 105.875 1.875 107 3 C107.07205511 4.68608966 107.08386068 6.37500659 107.0625 8.0625 C107.05347656 8.98160156 107.04445313 9.90070312 107.03515625 10.84765625 C107.02355469 11.55792969 107.01195312 12.26820312 107 13 C107.20496094 12.22914062 107.40992188 11.45828125 107.62109375 10.6640625 C107.89050781 9.66117188 108.15992188 8.65828125 108.4375 7.625 C108.70433594 6.62726562 108.97117187 5.62953125 109.24609375 4.6015625 C110 2 110 2 111 0 C113.4375 0.6875 113.4375 0.6875 116 2 C117.83183462 7.61305475 116.08089498 12.6741845 114 18 C112.47126445 20.41753528 111.42144558 21.34632985 109 23 C106.8125 23.0625 106.8125 23.0625 105 22 C103.75 19.9375 103.75 19.9375 103 18 C100.48916886 19.25541557 100.12874554 20.50063488 99 23 C95 22 95 22 93.1875 21.3125 C90.52123923 20.9316056 88.66065835 21.71053472 86.1328125 22.50390625 C81.80197361 23.51126255 77.39770396 23.59842174 73 23 C70.3125 21 70.3125 21 69 19 C68.30777344 19.54140625 68.30777344 19.54140625 67.6015625 20.09375 C62.74033356 23.55233186 59.1436712 24.5434056 53.19921875 24.46875 C50.59836986 23.914395 49.66445656 23.02535814 48 21 C47.34 21.66 46.68 22.32 46 23 C43.26565038 23.3063859 40.61720179 23.5113336 37.875 23.625 C36.74384766 23.68300781 36.74384766 23.68300781 35.58984375 23.7421875 C33.72696816 23.83651031 31.86351745 23.91934662 30 24 C29.01 22.35 28.02 20.7 27 19 C26.071875 19.639375 25.14375 20.27875 24.1875 20.9375 C19.21800582 24.15305506 14.8055844 24.78288967 9 24 C5.9375 22 5.9375 22 4 20 C3.2575 20.474375 2.515 20.94875 1.75 21.4375 C-3.23012488 24.26711641 -7.35587574 24.18206852 -13 24 C-13.66 23.67 -14.32 23.34 -15 23 C-15.34615998 17.34605369 -14.43425238 13.96993194 -12 9 C-13.32 8.67 -14.64 8.34 -16 8 C-16.33 6.35 -16.66 4.7 -17 3 C-11.36257661 0.05873562 -6.35918976 -0.9936234 0 0 Z " fill="#6CA1D1" transform="translate(58,49)"/>
<path d="M0 0 C1.32 0.33 2.64 0.66 4 1 C4 1.99 4 2.98 4 4 C4.70125 3.71125 5.4025 3.4225 6.125 3.125 C12.05070108 0.8062474 16.64096896 -0.47992687 23 0 C23.495 1.485 23.495 1.485 24 3 C24.69738281 2.67515625 25.39476562 2.3503125 26.11328125 2.015625 C29.31166516 0.89034785 31.80639904 0.7331995 35.1875 0.75 C36.23292969 0.74484375 37.27835938 0.7396875 38.35546875 0.734375 C41 1 41 1 43 3 C43.66 3.144375 44.32 3.28875 45 3.4375 C47 4 47 4 49 7 C48.96856707 9.73990408 48.44521663 12.28417854 48 15 C50.97969976 14.26935245 50.97969976 14.26935245 54 12 C55.72935819 8.44695499 56.90561125 4.79173515 58 1 C59.32 1 60.64 1 62 1 C63.59693878 9.78316327 63.59693878 9.78316327 61.375 14.3125 C54.82417582 21.72527473 54.82417582 21.72527473 51 23 C48.66700175 23.03954234 46.33291811 23.04401732 44 23 C41.84940691 19.46813168 41.6202272 16.33712007 41.375 12.25 C41.30023438 11.07953125 41.22546875 9.9090625 41.1484375 8.703125 C41.09945312 7.81109375 41.05046875 6.9190625 41 6 C38.69 6.66 36.38 7.32 34 8 C35.32 8.66 36.64 9.32 38 10 C37.67 11.32 37.34 12.64 37 14 C34.36 14.66 31.72 15.32 29 16 C29.62648437 15.97679687 30.25296875 15.95359375 30.8984375 15.9296875 C31.71570313 15.91164063 32.53296875 15.89359375 33.375 15.875 C34.18710938 15.85179687 34.99921875 15.82859375 35.8359375 15.8046875 C38 16 38 16 40 18 C39.9375 20 39.9375 20 39 22 C34.73687304 24.75040449 28.90906464 24.77380171 24 24 C21.52442933 22.12160646 21.06217391 21.44557966 20.625 18.3125 C21.09802582 14.13410525 22.3932828 10.88289989 24 7 C21.36 7.33 18.72 7.66 16 8 C16.680625 8.721875 17.36125 9.44375 18.0625 10.1875 C20 13 20 13 20 15.5625 C18.50850109 19.19802859 16.32719717 21.14374376 13.0625 23.25 C10.58118222 24.15229738 8.62100581 24.21251398 6 24 C5 23 5 23 4.9375 20.4375 C4.958125 19.633125 4.97875 18.82875 5 18 C5.56589844 17.80664062 6.13179687 17.61328125 6.71484375 17.4140625 C7.44832031 17.15367188 8.18179688 16.89328125 8.9375 16.625 C9.66839844 16.36976562 10.39929688 16.11453125 11.15234375 15.8515625 C13.18682116 15.14728587 13.18682116 15.14728587 14 13 C10.51332883 12.42126974 7.46954457 12.2498282 4 13 C1.49301883 15.10937982 -0.34629902 17.31583523 -2.30859375 19.93359375 C-4 22 -4 22 -7 23 C-9.33299825 23.03954234 -11.66708189 23.04401732 -14 23 C-16.44989101 19.25764681 -16.23086143 15.55774581 -16.125 11.25 C-16.11597656 10.55261719 -16.10695312 9.85523438 -16.09765625 9.13671875 C-16.07419888 7.42433042 -16.03833104 5.71211996 -16 4 C-14.68 3.67 -13.36 3.34 -12 3 C-10.4375 4.5 -10.4375 4.5 -9 7 C-9.03176766 9.77437543 -9.49635852 12.25286467 -10 15 C-5.88915273 13.31214254 -5.88915273 13.31214254 -2.75 10.3125 C-1.64707085 6.91180178 -0.81248411 3.48207475 0 0 Z " fill="#6CA0CF" transform="translate(56,7)"/>
<path d="M0 0 C0.33 0 0.66 0 1 0 C1 2.31 1 4.62 1 7 C7.85589228 7.37932191 12.6801413 6.66099314 19 4 C19.99 4 20.98 4 22 4 C22.47050781 4.48597656 22.94101563 4.97195312 23.42578125 5.47265625 C25.42897892 7.41620535 26.43324303 7.43262521 29.1875 7.4375 C34.19125936 7.29033061 37.76848717 5.52673068 42 3 C42.66 2.67 43.32 2.34 44 2 C44.66 3.65 45.32 5.3 46 7 C48.62594784 6.8863485 51.25011547 6.75960946 53.875 6.625 C54.62136719 6.5940625 55.36773437 6.563125 56.13671875 6.53125 C60.53473188 6.44356169 60.53473188 6.44356169 64 4 C64.59941406 4.72703125 64.59941406 4.72703125 65.2109375 5.46875 C68.06373524 7.91044589 70.65389474 7.52284954 74.28125 7.4375 C78.77350398 6.71460855 82.27412964 4.51991232 86 2 C86.39058594 2.65226562 86.78117187 3.30453125 87.18359375 3.9765625 C88.82167039 6.20941589 88.82167039 6.20941589 91.34765625 6.4609375 C97.10551274 6.27867442 102.41676141 5.69037544 108.00390625 4.2421875 C108.66261719 4.16226563 109.32132812 4.08234375 110 4 C110.99 4.99 110.99 4.99 112 6 C112.99 6 113.98 6 115 6 C115.66 4.68 116.32 3.36 117 2 C117.66 2 118.32 2 119 2 C119.680625 2.928125 119.680625 2.928125 120.375 3.875 C122.10279389 6.13442278 123.40813228 6.92750301 126 8 C124.35 8.33 122.7 8.66 121 9 C120.34 10.98 119.68 12.96 119 15 C83.69 15 48.38 15 12 15 C12 13.35 12 11.7 12 10 C8.7 10 5.4 10 2 10 C2 9.34 2 8.68 2 8 C1.01 7.67 0.02 7.34 -1 7 C-1.04254356 5.00045254 -1.04080783 2.99958364 -1 1 C-0.67 0.67 -0.34 0.34 0 0 Z " fill="#1A222A" transform="translate(42,65)"/>
<path d="M0 0 C0.99 0 1.98 0 3 0 C3 0.66 3 1.32 3 2 C3.99 2.33 4.98 2.66 6 3 C6 4.98 6 6.96 6 9 C7.31611677 8.04663979 8.62778961 7.08714226 9.9375 6.125 C10.66839844 5.59132813 11.39929688 5.05765625 12.15234375 4.5078125 C14.11098235 3.11987896 14.11098235 3.11987896 15 1 C18.37462715 1.54723683 20.08235 2.0549 23 4 C26.545183 2.73068271 26.545183 2.73068271 30 1 C33.95659266 -0.31886422 36.82339427 -0.26518132 41 0 C43 3 43 3 42.625 5.1875 C42.41875 5.785625 42.2125 6.38375 42 7 C39.36 7.33 36.72 7.66 34 8 C34.495 8.53625 34.99 9.0725 35.5 9.625 C37.48198314 12.76313998 37.67064058 14.34873465 37 18 C34.73970908 20.58516453 32.07582908 22.46208546 29 24 C27.00039988 24.039992 24.99952758 24.04346799 23 24 C23 22.02 23 20.04 23 18 C23.56589844 17.80664062 24.13179687 17.61328125 24.71484375 17.4140625 C25.81505859 17.02347656 25.81505859 17.02347656 26.9375 16.625 C28.03384766 16.24214844 28.03384766 16.24214844 29.15234375 15.8515625 C31.18682116 15.14728587 31.18682116 15.14728587 32 13 C30.906875 13.04125 29.81375 13.0825 28.6875 13.125 C25 13 25 13 22 11 C21.75765625 11.78246094 21.5153125 12.56492187 21.265625 13.37109375 C20.76289063 14.88896484 20.76289063 14.88896484 20.25 16.4375 C19.92515625 17.44683594 19.6003125 18.45617187 19.265625 19.49609375 C18 22 18 22 15.921875 22.91015625 C15.28765625 22.93980469 14.6534375 22.96945313 14 23 C13 22 13 22 12.90234375 20.15234375 C12.93489583 18.1015625 12.96744792 16.05078125 13 14 C12.278125 14.495 11.55625 14.99 10.8125 15.5 C7.78179923 17.11637374 6.36485347 17.43139147 3 17 C0.6875 16 0.6875 16 -1 15 C-1.12375 15.7425 -1.2475 16.485 -1.375 17.25 C-1.95486701 19.80141485 -2.73708739 21.7267573 -4 24 C-5.32 23.67 -6.64 23.34 -8 23 C-9.34639795 17.20528174 -8.50296144 13.75750891 -5.6875 8.6875 C-5.36587891 8.06810547 -5.04425781 7.44871094 -4.71289062 6.81054688 C-3.3413475 4.21672508 -2.08456422 2.08456422 0 0 Z " fill="#6DA3D5" transform="translate(126,7)"/>
<path d="M0 0 C1.9375 0.75 1.9375 0.75 3.9375 2.75 C3.80078125 4.71875 3.80078125 4.71875 2.9375 6.75 C1.23046875 8.09375 1.23046875 8.09375 -0.875 9.25 C-4.07327024 11.10465222 -6.58392625 12.96160454 -9.0625 15.75 C-6.4225 15.75 -3.7825 15.75 -1.0625 15.75 C-1.3925 14.1 -1.7225 12.45 -2.0625 10.75 C0 9.5 0 9.5 2.9375 8.75 C5.54656369 9.79578173 7.57716471 11.17644314 9.9375 12.75 C10.02 12.09 10.1025 11.43 10.1875 10.75 C11.18509791 6.75960837 13.00916683 3.36450357 14.9375 -0.25 C19.8125 1.625 19.8125 1.625 20.9375 2.75 C21.00955511 4.43608966 21.02136068 6.12500659 21 7.8125 C20.99097656 8.73160156 20.98195312 9.65070312 20.97265625 10.59765625 C20.96105469 11.30792969 20.94945312 12.01820312 20.9375 12.75 C21.14246094 11.97914062 21.34742188 11.20828125 21.55859375 10.4140625 C21.82800781 9.41117188 22.09742188 8.40828125 22.375 7.375 C22.64183594 6.37726562 22.90867188 5.37953125 23.18359375 4.3515625 C23.9375 1.75 23.9375 1.75 24.9375 -0.25 C27.375 0.4375 27.375 0.4375 29.9375 1.75 C31.76933462 7.36305475 30.01839498 12.4241845 27.9375 17.75 C26.40876445 20.16753528 25.35894558 21.09632985 22.9375 22.75 C20.75 22.8125 20.75 22.8125 18.9375 21.75 C17.6875 19.6875 17.6875 19.6875 16.9375 17.75 C14.42666886 19.00541557 14.06624554 20.25063488 12.9375 22.75 C8.9375 21.75 8.9375 21.75 7.125 21.0625 C4.45901022 20.68164432 2.60198377 21.45518127 0.078125 22.26171875 C-4.19138022 23.23560224 -8.72130704 23.2395541 -13.0625 22.75 C-15.69576457 20.11673543 -15.77430635 18.42446899 -16.0625 14.75 C-14.83607463 10.52188161 -12.95086698 8.38593716 -9.625 5.5625 C-8.84253906 4.88832031 -8.06007812 4.21414062 -7.25390625 3.51953125 C-2.51739443 -0.30513872 -2.51739443 -0.30513872 0 0 Z " fill="#6EA3D4" transform="translate(144.0625,49.25)"/>
<path d="M0 0 C2.51953125 0.87890625 2.51953125 0.87890625 3.8828125 3.1640625 C4.19605469 4.08058594 4.50929687 4.99710938 4.83203125 5.94140625 C5.32123047 7.32005859 5.32123047 7.32005859 5.8203125 8.7265625 C6.05105469 9.43683594 6.28179687 10.14710937 6.51953125 10.87890625 C8.16953125 10.87890625 9.81953125 10.87890625 11.51953125 10.87890625 C10.85953125 9.88890625 10.19953125 8.89890625 9.51953125 7.87890625 C9.89453125 5.19140625 9.89453125 5.19140625 10.51953125 2.87890625 C16.3841275 0.59822993 21.20853956 -0.66514476 27.51953125 -0.12109375 C28.50953125 0.53890625 29.49953125 1.19890625 30.51953125 1.87890625 C30.18953125 3.19890625 29.85953125 4.51890625 29.51953125 5.87890625 C25.88953125 6.20890625 22.25953125 6.53890625 18.51953125 6.87890625 C18.18953125 8.19890625 17.85953125 9.51890625 17.51953125 10.87890625 C19.82953125 10.87890625 22.13953125 10.87890625 24.51953125 10.87890625 C24.51953125 12.19890625 24.51953125 13.51890625 24.51953125 14.87890625 C20.87535385 17.30835785 18.80711853 17.040702 14.51953125 16.87890625 C13.85953125 19.18890625 13.19953125 21.49890625 12.51953125 23.87890625 C11.19953125 23.54890625 9.87953125 23.21890625 8.51953125 22.87890625 C8.02453125 20.40390625 8.02453125 20.40390625 7.51953125 17.87890625 C7.02453125 18.49765625 6.52953125 19.11640625 6.01953125 19.75390625 C1.94528301 23.21701725 -2.47035197 23.64242192 -7.66796875 24.25390625 C-11.40555603 23.75556128 -12.97522347 22.67888626 -15.48046875 19.87890625 C-16.22018315 16.09814376 -15.72428462 14.33728008 -13.91796875 10.94140625 C-5.01465388 -0.24480987 -5.01465388 -0.24480987 0 0 Z " fill="#6A9ED0" transform="translate(191.48046875,7.12109375)"/>
<path d="M0 0 C0.97484848 0.00222061 1.94969696 0.00444122 2.9540863 0.00672913 C4.05515213 0.00680466 5.15621796 0.00688019 6.29064941 0.00695801 C8.08749428 0.01469994 8.08749428 0.01469994 9.92063904 0.02259827 C11.14000656 0.02401321 12.35937408 0.02542816 13.61569214 0.02688599 C17.52856349 0.03250485 21.4413786 0.04506055 25.35423279 0.05775452 C27.99941426 0.06276709 30.64459662 0.06733041 33.28977966 0.07142639 C39.79045005 0.08248041 46.2910874 0.09923688 52.79173279 0.12025452 C53.28673279 3.58525452 53.28673279 3.58525452 53.79173279 7.12025452 C54.45173279 7.12025452 55.11173279 7.12025452 55.79173279 7.12025452 C55.79173279 8.77025452 55.79173279 10.42025452 55.79173279 12.12025452 C55.29673279 10.14025452 55.29673279 10.14025452 54.79173279 8.12025452 C53.47173279 8.12025452 52.15173279 8.12025452 50.79173279 8.12025452 C50.7053656 8.7119342 50.61899841 9.30361389 50.53001404 9.91322327 C49.55305378 15.40750438 48.43574967 18.60892468 43.79173279 22.12025452 C42.80173279 22.12025452 41.81173279 22.12025452 40.79173279 22.12025452 C40.85683695 20.13457743 40.92194112 18.14890035 40.98704529 16.16322327 C40.92427741 13.80665733 40.92427741 13.80665733 38.79173279 11.12025452 C37.47173279 11.12025452 36.15173279 11.12025452 34.79173279 11.12025452 C34.29673279 10.13025452 34.29673279 10.13025452 33.79173279 9.12025452 C31.89598028 9.09304276 30.000113 9.07376316 28.10423279 9.05775452 C27.0484906 9.04615295 25.99274841 9.03455139 24.90501404 9.02259827 C22.06763016 9.11160027 19.54784088 9.47085613 16.79173279 10.12025452 C16.46173279 9.46025452 16.13173279 8.80025452 15.79173279 8.12025452 C9.53477036 7.7850601 5.57919141 8.76603406 -0.20826721 11.12025452 C-1.19826721 11.12025452 -2.18826721 11.12025452 -3.20826721 11.12025452 C-3.20826721 10.46025452 -3.20826721 9.80025452 -3.20826721 9.12025452 C-2.54826721 9.12025452 -1.88826721 9.12025452 -1.20826721 9.12025452 C-1.20826721 6.81025452 -1.20826721 4.50025452 -1.20826721 2.12025452 C-1.86826721 1.79025452 -2.52826721 1.46025452 -3.20826721 1.12025452 C-2.20826721 0.12025452 -2.20826721 0.12025452 0 0 Z " fill="#1A232A" transform="translate(63.20826721191406,-0.1202545166015625)"/>
<path d="M0 0 C0.99 0 1.98 0 3 0 C3 0.66 3 1.32 3 2 C4.32 2.66 5.64 3.32 7 4 C7 5.32 7 6.64 7 8 C11.57748509 5.1204024 11.57748509 5.1204024 15 1 C19.75 1.75 19.75 1.75 22 4 C21.89618775 6.53301886 21.67423788 8.87829932 21.3125 11.375 C21.19358398 12.38433594 21.19358398 12.38433594 21.07226562 13.4140625 C20.53532697 17.33873644 19.9245807 20.22485043 17 23 C16.01 23 15.02 23 14 23 C12.5216774 20.04335481 12.93967217 17.25770263 13 14 C12.01 14.66 11.02 15.32 10 16 C6.57982443 16.39958487 3.12706959 16.5635348 0 15 C-1.98 19.455 -1.98 19.455 -4 24 C-5.32 23.67 -6.64 23.34 -8 23 C-9.42663876 20.14672248 -9.26366048 18.1789921 -9 15 C-7.5390625 11.640625 -7.5390625 11.640625 -5.625 8.25 C-4.99851562 7.12078125 -4.37203125 5.9915625 -3.7265625 4.828125 C-2 2 -2 2 0 0 Z " fill="#6DA1D0" transform="translate(17,7)"/>
<path d="M0 0 C2.6875 1.6875 2.6875 1.6875 4 4 C3.75 6.5 3.75 6.5 3 9 C3 10.32 3 11.64 3 13 C5.12364481 13.22609337 5.12364481 13.22609337 6.625 11.5 C7.305625 10.7575 7.305625 10.7575 8 10 C8 11.32 8 12.64 8 14 C7.34 14 6.68 14 6 14 C6 15.98 6 17.96 6 20 C4.34015202 20.68346682 2.67163195 21.34588315 1 22 C0.071875 22.37125 -0.85625 22.7425 -1.8125 23.125 C-6.08835189 24.29876326 -10.89850388 25.05074806 -15 23 C-15.34615998 17.34605369 -14.43425238 13.96993194 -12 9 C-13.32 8.67 -14.64 8.34 -16 8 C-16.33 6.35 -16.66 4.7 -17 3 C-11.36257661 0.05873562 -6.35918976 -0.9936234 0 0 Z " fill="#6A9FD2" transform="translate(58,49)"/>
<path d="M0 0 C1.31626692 3.61973402 2 6.09567131 2 10 C3.32 10.66 4.64 11.32 6 12 C5.54917531 13.46067199 5.08906463 14.91848032 4.625 16.375 C4.36976563 17.18710938 4.11453125 17.99921875 3.8515625 18.8359375 C3 21 3 21 1 23 C-1.125 22.625 -1.125 22.625 -3 22 C-3 21.34 -3 20.68 -3 20 C-3.66 20 -4.32 20 -5 20 C-5 19.34 -5 18.68 -5 18 C-6.65 18 -8.3 18 -10 18 C-10.33 19.32 -10.66 20.64 -11 22 C-12.875 22.625 -12.875 22.625 -15 23 C-15.66 22.34 -16.32 21.68 -17 21 C-16.60340863 17.40017068 -15.41660124 14.21681967 -14.0625 10.875 C-13.55396484 9.60269531 -13.55396484 9.60269531 -13.03515625 8.3046875 C-10.34107999 2.30655545 -6.6611485 -0.57095559 0 0 Z " fill="#6AA2D6" transform="translate(189,50)"/>
<path d="M0 0 C0.99 0.66 1.98 1.32 3 2 C2.67 3.32 2.34 4.64 2 6 C-1.63 6.33 -5.26 6.66 -9 7 C-9.33 8.32 -9.66 9.64 -10 11 C-7.69 11 -5.38 11 -3 11 C-3 12.32 -3 13.64 -3 15 C-6.6441774 17.4294516 -8.71241272 17.16179575 -13 17 C-13.66 19.31 -14.32 21.62 -15 24 C-16.32 23.67 -17.64 23.34 -19 23 C-19.33 19.37 -19.66 15.74 -20 12 C-18.68 11.67 -17.36 11.34 -16 11 C-16.66 10.01 -17.32 9.02 -18 8 C-17.625 5.3125 -17.625 5.3125 -17 3 C-11.13540375 0.71932368 -6.31099169 -0.54405101 0 0 Z " fill="#6DA2D2" transform="translate(219,7)"/>
<path d="M0 0 C2.625 -0.1875 2.625 -0.1875 5 0 C6.31626692 3.61973402 7 6.09567131 7 10 C8.32 10.66 9.64 11.32 11 12 C10.54917531 13.46067199 10.08906463 14.91848032 9.625 16.375 C9.36976563 17.18710938 9.11453125 17.99921875 8.8515625 18.8359375 C8 21 8 21 6 23 C3.875 22.625 3.875 22.625 2 22 C2 21.34 2 20.68 2 20 C1.34 20 0.68 20 0 20 C0 19.34 0 18.68 0 18 C-1.65 18 -3.3 18 -5 18 C-5.33 19.32 -5.66 20.64 -6 22 C-7.875 22.625 -7.875 22.625 -10 23 C-10.66 22.34 -11.32 21.68 -12 21 C-11.64700993 17.55834679 -10.95418308 15.93127462 -9 13 C-8.67 13.66 -8.34 14.32 -8 15 C-5.11788698 15.96070434 -3.30149956 16.10581883 -0.3125 16.0625 C0.49574219 16.05347656 1.30398437 16.04445313 2.13671875 16.03515625 C2.75160156 16.02355469 3.36648437 16.01195313 4 16 C4 15.01 4 14.02 4 13 C4.66 12.67 5.32 12.34 6 12 C5.7834375 11.45730469 5.566875 10.91460937 5.34375 10.35546875 C5.0653125 9.64003906 4.786875 8.92460938 4.5 8.1875 C4.2215625 7.47980469 3.943125 6.77210937 3.65625 6.04296875 C3 4 3 4 3 1 C1.35 1.66 -0.3 2.32 -2 3 C-1.34 2.01 -0.68 1.02 0 0 Z " fill="#6FA4D5" transform="translate(184,50)"/>
<path d="M0 0 C2.4375 0.6875 2.4375 0.6875 5 2 C6.83183462 7.61305475 5.08089498 12.6741845 3 18 C1.47126445 20.41753528 0.42144558 21.34632985 -2 23 C-4.3125 22.8125 -4.3125 22.8125 -6 22 C-6 19 -6 19 -5 17 C-4.34 17 -3.68 17 -3 17 C-3 16.34 -3 15.68 -3 15 C-3.66 14.67 -4.32 14.34 -5 14 C-4.34 13.01 -3.68 12.02 -3 11 C-2.36921661 8.79158062 -2.36921661 8.79158062 -1.9375 6.4375 C-1.46509229 4.05984465 -1.08564836 2.17129671 0 0 Z " fill="#6BA0D4" transform="translate(169,49)"/>
<path d="M0 0 C0.66 0 1.32 0 2 0 C2 1.32 2 2.64 2 4 C2.99 4 3.98 4 5 4 C5.35820896 9.37313433 5.35820896 9.37313433 4 11.75 C-0.83871006 14.77419379 -6.41986712 15.27900664 -12 15 C-15 8.5 -15 8.5 -15 4 C-13.68 4.33 -12.36 4.66 -11 5 C-11 6.32 -11 7.64 -11 9 C-7.37 8.01 -3.74 7.02 0 6 C-0.33 4.35 -0.66 2.7 -1 1 C-0.67 0.67 -0.34 0.34 0 0 Z " fill="#6FA4D5" transform="translate(193,16)"/>
<path d="M0 0 C0 0.99 0 1.98 0 3 C-2.31 3 -4.62 3 -7 3 C-7 3.99 -7 4.98 -7 6 C-5.02 6.66 -3.04 7.32 -1 8 C-1.375 9.9375 -1.375 9.9375 -2 12 C-4.88415883 13.44207941 -7.41721528 13.09394887 -10.625 13.0625 C-11.81351562 13.05347656 -13.00203125 13.04445313 -14.2265625 13.03515625 C-15.14179687 13.02355469 -16.05703125 13.01195312 -17 13 C-16.67 11.68 -16.34 10.36 -16 9 C-15.34 9 -14.68 9 -14 9 C-13.67 6.69 -13.34 4.38 -13 2 C-8.50343896 -0.24828052 -4.92127034 -0.16682272 0 0 Z " fill="#6DA6DB" transform="translate(95,9)"/>
<path d="M0 0 C0.59732819 2.76264289 1 5.16032769 1 8 C2.98 8 4.96 8 7 8 C4.20856971 11.10158921 2.05616943 12.91835482 -2 14 C-5.00846986 14.15194292 -7.99086522 14.11800529 -11 14 C-11.33 13.34 -11.66 12.68 -12 12 C-10.68 11.34 -9.36 10.68 -8 10 C-8.268125 9.278125 -8.53625 8.55625 -8.8125 7.8125 C-9 5 -9 5 -6.8125 2.1875 C-4 0 -4 0 0 0 Z " fill="#6C9DC9" transform="translate(78,59)"/>
<path d="M0 0 C1.65 0.33 3.3 0.66 5 1 C6.61611336 5.84834008 5.05564536 8.49339287 3 13 C2.60235737 14.98821313 2.24544834 16.98732362 2 19 C0.02 18.01 -1.96 17.02 -4 16 C-4 17.65 -4 19.3 -4 21 C-6.29633824 17.55549263 -6.54016485 15.06187717 -7 11 C-6.67 11.99 -6.34 12.98 -6 14 C-5.34 14 -4.68 14 -4 14 C-3.896875 12.989375 -3.79375 11.97875 -3.6875 10.9375 C-2.96295233 6.78781792 -1.77730734 3.78643737 0 0 Z " fill="#6B9ECB" transform="translate(91,49)"/>
<path d="M0 0 C0 2 0 2 -2.5 4.625 C-3.325 5.40875 -4.15 6.1925 -5 7 C-2.69 7.33 -0.38 7.66 2 8 C2.33 9.98 2.66 11.96 3 14 C-0.6678852 15.96189209 -3.87248551 17.39301257 -8 18 C-7.67 14.7 -7.34 11.4 -7 8 C-7.66 8 -8.32 8 -9 8 C-9.66 9.32 -10.32 10.64 -11 12 C-11 9 -11 9 -8.75 6.5625 C-7.8425 5.716875 -6.935 4.87125 -6 4 C-5.278125 3.236875 -4.55625 2.47375 -3.8125 1.6875 C-2 0 -2 0 0 0 Z " fill="#6595C1" transform="translate(118,50)"/>
<path d="M0 0 C2.61599122 2.34768443 4.67189917 4.27088705 6.125 7.5 C6 10 6 10 3.8125 12.6875 C-0.25133852 16.02887834 -2.66585107 17.43249856 -8 17 C-8.33 16.67 -8.66 16.34 -9 16 C-9 14.35 -9 12.7 -9 11 C-4.05 9.515 -4.05 9.515 1 8 C0.67 5.36 0.34 2.72 0 0 Z " fill="#6EA2D3" transform="translate(70,14)"/>
<path d="M0 0 C0.515625 0.309375 1.03125 0.61875 1.5625 0.9375 C4.66665423 2.29059287 7.65115007 2.61359424 11 3 C10 6 10 6 7.625 7.1875 C5 8 5 8 2 8 C2 9.65 2 11.3 2 13 C0.37675914 13.22162329 -1.248721 13.42689803 -2.875 13.625 C-3.77992188 13.74101562 -4.68484375 13.85703125 -5.6171875 13.9765625 C-6.40351563 13.98429687 -7.18984375 13.99203125 -8 14 C-10.19191368 11.80808632 -10.27869352 10.88522592 -11 8 C-11.66 7.34 -12.32 6.68 -13 6 C-11.02 5.01 -9.04 4.02 -7 3 C-7 5.97 -7 8.94 -7 12 C-6.01 12 -5.02 12 -4 12 C-3.79503906 11.38511719 -3.59007812 10.77023438 -3.37890625 10.13671875 C-2.25260417 6.7578125 -1.12630208 3.37890625 0 0 Z " fill="#172938" transform="translate(147,17)"/>
<path d="M0 0 C2.36328125 0.20703125 2.36328125 0.20703125 5 1 C6.29296875 3.07421875 6.29296875 3.07421875 7.1875 5.6875 C7.50589844 6.58597656 7.82429687 7.48445312 8.15234375 8.41015625 C8.43207031 9.26480469 8.71179688 10.11945312 9 11 C9.4125 12.19625 9.825 13.3925 10.25 14.625 C10.4975 15.40875 10.745 16.1925 11 17 C10.34 17.33 9.68 17.66 9 18 C9 16.35 9 14.7 9 13 C8.01 13 7.02 13 6 13 C6 11.68 6 10.36 6 9 C5.01 9.495 5.01 9.495 4 10 C4.061875 10.78375 4.12375 11.5675 4.1875 12.375 C4.125625 13.24125 4.06375 14.1075 4 15 C0.3558226 17.4294516 -1.71241272 17.16179575 -6 17 C-5.44295272 13.76912579 -4.66812465 11.97638863 -2 10 C-0.68 10 0.64 10 2 10 C2.33 7.36 2.66 4.72 3 2 C2.01 1.67 1.02 1.34 0 1 C0 0.67 0 0.34 0 0 Z " fill="#72A0C9" transform="translate(189,7)"/>
<path d="M0 0 C1.8871875 0.061875 1.8871875 0.061875 3.8125 0.125 C4.1425 1.115 4.4725 2.105 4.8125 3.125 C5.50988281 2.80144531 6.20726563 2.47789063 6.92578125 2.14453125 C10.11293296 1.01889309 12.62835146 0.82506515 16 0.8125 C17.04542969 0.79574219 18.09085938 0.77898438 19.16796875 0.76171875 C20.47701172 0.94154297 20.47701172 0.94154297 21.8125 1.125 C23.9644437 4.35291555 24.01336443 5.40900809 23.8125 9.125 C23.1525 8.135 22.4925 7.145 21.8125 6.125 C18.8425 6.785 15.8725 7.445 12.8125 8.125 C12.8125 7.135 12.8125 6.145 12.8125 5.125 C15.1225 5.125 17.4325 5.125 19.8125 5.125 C19.8125 4.135 19.8125 3.145 19.8125 2.125 C18.1858152 2.40711877 16.56117104 2.70102375 14.9375 3 C14.03257813 3.16242187 13.12765625 3.32484375 12.1953125 3.4921875 C9.64744012 3.95544703 9.64744012 3.95544703 7.8125 6.125 C6.8225 6.62 6.8225 6.62 5.8125 7.125 C5.16036708 9.14963255 5.16036708 9.14963255 4.8125 11.125 C4.8125 9.805 4.8125 8.485 4.8125 7.125 C2.1725 7.125 -0.4675 7.125 -3.1875 7.125 C-3.1875 6.795 -3.1875 6.465 -3.1875 6.125 C-1.2075 5.795 0.7725 5.465 2.8125 5.125 C2.1525 4.135 1.4925 3.145 0.8125 2.125 C-1.16497122 1.76202064 -1.16497122 1.76202064 -3.3125 1.9375 C-4.59125 1.999375 -5.87 2.06125 -7.1875 2.125 C-4.09861478 0.06574319 -3.47814073 -0.1140374 0 0 Z " fill="#6591B9" transform="translate(75.1875,6.875)"/>
<path d="M0 0 C0.66 0 1.32 0 2 0 C2.45375 0.61875 2.9075 1.2375 3.375 1.875 C5.10279389 4.13442278 6.40813228 4.92750301 9 6 C7.35 6.33 5.7 6.66 4 7 C3.34 8.98 2.68 10.96 2 13 C-0.375 13.1875 -0.375 13.1875 -3 13 C-5.1519437 9.77208445 -5.20086443 8.71599191 -5 5 C-4.01 4.67 -3.02 4.34 -2 4 C-0.79117904 1.99983534 -0.79117904 1.99983534 0 0 Z " fill="#1D2934" transform="translate(159,67)"/>
<path d="M0 0 C0.32613618 4.67461851 -0.29417212 7.16674383 -3 11 C-2.34 11.33 -1.68 11.66 -1 12 C-8.625 13.25 -8.625 13.25 -12 11 C-10.35 11 -8.7 11 -7 11 C-7 10.01 -7 9.02 -7 8 C-7.66 8 -8.32 8 -9 8 C-9 6.02 -9 4.04 -9 2 C-2.25 0 -2.25 0 0 0 Z " fill="#6091BD" transform="translate(58,60)"/>
<path d="M0 0 C0.33 5.28 0.66 10.56 1 16 C-2 15 -2 15 -4 12 C-6.43693311 11.63583953 -6.43693311 11.63583953 -9.125 11.8125 C-10.49011719 11.85310547 -10.49011719 11.85310547 -11.8828125 11.89453125 C-12.58148438 11.92933594 -13.28015625 11.96414062 -14 12 C-13 10 -13 10 -11.15234375 9.3671875 C-10.05599609 9.12355469 -10.05599609 9.12355469 -8.9375 8.875 C-8.20402344 8.70742188 -7.47054687 8.53984375 -6.71484375 8.3671875 C-6.14894531 8.24601562 -5.58304688 8.12484375 -5 8 C-5 7.01 -5 6.02 -5 5 C-7.97 4.505 -7.97 4.505 -11 4 C-7.79846743 1.86564495 -3.96847467 0 0 0 Z " fill="#1B3349" transform="translate(98,12)"/>
<path d="M0 0 C2.475 0.99 2.475 0.99 5 2 C5.33 1.67 5.66 1.34 6 1 C11.86391129 1.27923387 11.86391129 1.27923387 14 2 C15.25390625 4.05078125 15.25390625 4.05078125 16 6 C13.89590361 6.02701408 11.79170822 6.04640223 9.6875 6.0625 C8.51574219 6.07410156 7.34398438 6.08570312 6.13671875 6.09765625 C3 6 3 6 0 5 C0 3.35 0 1.7 0 0 Z " fill="#6EA8DC" transform="translate(87,65)"/>
<path d="M0 0 C0.99 0.33 1.98 0.66 3 1 C2.814375 2.2375 2.62875 3.475 2.4375 4.75 C2.05288777 7.76279577 1.9125406 10.10010827 3 13 C1.00045254 13.04254356 -1.00041636 13.04080783 -3 13 C-4 12 -4 12 -4.0625 8.4375 C-4.041875 7.303125 -4.02125 6.16875 -4 5 C-3.34 5 -2.68 5 -2 5 C-2 3.68 -2 2.36 -2 1 C-1.34 0.67 -0.68 0.34 0 0 Z " fill="#6FA7D8" transform="translate(68,58)"/>
<path d="M0 0 C1.65 0 3.3 0 5 0 C4.61328125 0.47308594 4.2265625 0.94617188 3.828125 1.43359375 C-1.65522548 8.39636305 -5.77276718 14.91998566 -5 24 C-5.99 24 -6.98 24 -8 24 C-8.33 23.01 -8.66 22.02 -9 21 C-9.66 20.67 -10.32 20.34 -11 20 C-10.38125 19.4225 -9.7625 18.845 -9.125 18.25 C-5.31229792 14.21302133 -4.56030758 10.26551392 -3.66015625 4.92578125 C-3.44230469 4.29027344 -3.22445312 3.65476562 -3 3 C-2.01 2.67 -1.02 2.34 0 2 C0 1.34 0 0.68 0 0 Z " fill="#183251" transform="translate(123,6)"/>
<path d="M0 0 C1.98 0.495 1.98 0.495 4 1 C4 4.96 4 8.92 4 13 C3.01 13.33 2.02 13.66 1 14 C0.34 14.66 -0.32 15.32 -1 16 C-1.09688221 10.55306686 -1.12862175 5.36095333 0 0 Z " fill="#6EA5D6" transform="translate(99,10)"/>
<path d="M0 0 C2.97 0 5.94 0 9 0 C8.125 5.75 8.125 5.75 7 8 C6.75212983 12.14503661 6.75212983 12.14503661 8 16 C7.01 16 6.02 16 5 16 C2.85192498 11.5774926 2.85192498 11.5774926 3.625 8.5625 C4.31053557 5.73973347 4.31053557 5.73973347 2.0625 2.6875 C1.381875 1.800625 0.70125 0.91375 0 0 Z " fill="#18293E" transform="translate(71,14)"/>
<path d="M0 0 C0.33 1.32 0.66 2.64 1 4 C0.34 4 -0.32 4 -1 4 C-1 5.98 -1 7.96 -1 10 C-4.37097383 11.49821059 -6.20442119 12 -10 12 C-9.37215066 9.07003641 -8.71202908 6.48244217 -7 4 C-5.34178227 3.62690101 -3.67422986 3.29299023 -2 3 C-1.34 2.01 -0.68 1.02 0 0 Z " fill="#669ACB" transform="translate(65,59)"/>
<path d="M0 0 C0.66 0.474375 1.32 0.94875 2 1.4375 C5.7933028 3.41317854 8.75524068 3.64027463 13 4 C12.01 4.495 12.01 4.495 11 5 C10.67 5.66 10.34 6.32 10 7 C10 6.34 10 5.68 10 5 C8.35 5 6.7 5 5 5 C4.67 6.32 4.34 7.64 4 9 C2.125 9.625 2.125 9.625 0 10 C-0.66 9.34 -1.32 8.68 -2 8 C-1.63723355 5.17042171 -0.90305236 2.70915709 0 0 Z " fill="#6394C2" transform="translate(174,63)"/>
<path d="M0 0 C0.33 0 0.66 0 1 0 C1.25 6.625 1.25 6.625 -1 10 C-3.77262255 10.38394667 -6.34323528 10.60342248 -9.125 10.6875 C-9.87910156 10.72166016 -10.63320312 10.75582031 -11.41015625 10.79101562 C-13.27291201 10.87354278 -15.13643326 10.93844711 -17 11 C-17.33 10.01 -17.66 9.02 -18 8 C-12.72 8.33 -7.44 8.66 -2 9 C-4.57404971 5.13892543 -6.61020259 5.05680308 -11 4 C-11 3.67 -11 3.34 -11 3 C-3.57142857 2.71428571 -3.57142857 2.71428571 0 5 C0 3.35 0 1.7 0 0 Z " fill="#6490BA" transform="translate(105,62)"/>
<path d="M0 0 C1.9375 0.25 1.9375 0.25 4 1 C6.78637633 5.1795645 5.79562512 7.14668677 5 12 C3 11 1 10 -1 9 C-1.09765625 2.84765625 -1.09765625 2.84765625 -1 1 C-0.67 0.67 -0.34 0.34 0 0 Z " fill="#6A9CC7" transform="translate(41,10)"/>
<path d="M0 0 C0 2.97 0 5.94 0 9 C0.66 9.33 1.32 9.66 2 10 C0.68 11.32 -0.64 12.64 -2 14 C-2.99 13.34 -3.98 12.68 -5 12 C-5.65835411 5.19700748 -5.65835411 5.19700748 -3.625 1.5 C-2 0 -2 0 0 0 Z " fill="#6EA7DC" transform="translate(111,58)"/>
<path d="M0 0 C4.73045822 4.24528302 4.73045822 4.24528302 5.9375 7.625 C6 10 6 10 4 13 C3.34 13 2.68 13 2 13 C2 12.01 2 11.02 2 10 C-0.64 10.33 -3.28 10.66 -6 11 C-3.38058783 9.25372522 -1.96175123 8.61277612 1 8 C0.67 5.36 0.34 2.72 0 0 Z " fill="#6B99C0" transform="translate(70,14)"/>
<path d="M0 0 C0.33 1.32 0.66 2.64 1 4 C-0.65 4.33 -2.3 4.66 -4 5 C-4 6.65 -4 8.3 -4 10 C-8.455 10.495 -8.455 10.495 -13 11 C-10.97185173 6.94370346 -10.14540039 6.11454668 -6.5 3.8125 C-5.7059375 3.30332031 -4.911875 2.79414062 -4.09375 2.26953125 C-2 1 -2 1 0 0 Z " fill="#18293A" transform="translate(147,55)"/>
<path d="M0 0 C1.1446875 0.3403125 1.1446875 0.3403125 2.3125 0.6875 C2.6425 2.0075 2.9725 3.3275 3.3125 4.6875 C-0.3316774 7.1169516 -2.39991272 6.84929575 -6.6875 6.6875 C-6.28750283 4.36751641 -5.78182121 2.82426576 -4.4375 0.875 C-2.6875 -0.3125 -2.6875 -0.3125 0 0 Z " fill="#19304A" transform="translate(189.6875,17.3125)"/>
<path d="M0 0 C0.33 1.65 0.66 3.3 1 5 C-2.6441774 7.4294516 -4.71241272 7.16179575 -9 7 C-6.79922603 2.09058114 -5.62803596 0 0 0 Z " fill="#162B43" transform="translate(78,59)"/>
<path d="M0 0 C2.625 -0.1875 2.625 -0.1875 5 0 C6.31626692 3.61973402 7 6.09567131 7 10 C8.32 10.66 9.64 11.32 11 12 C10.34 14.64 9.68 17.28 9 20 C8.67 20 8.34 20 8 20 C8 17.03 8 14.06 8 11 C7.01 11 6.02 11 5 11 C4.34 7.7 3.68 4.4 3 1 C1.35 1.66 -0.3 2.32 -2 3 C-1.34 2.01 -0.68 1.02 0 0 Z " fill="#749BB7" transform="translate(184,50)"/>
<path d="M0 0 C1.65 0.33 3.3 0.66 5 1 C6.125 5.75 6.125 5.75 5 8 C4.01 8 3.02 8 2 8 C1.67 8.66 1.34 9.32 1 10 C0.01 10 -0.98 10 -2 10 C-1.67 9.01 -1.34 8.02 -1 7 C-0.34 7 0.32 7 1 7 C0.67 4.69 0.34 2.38 0 0 Z " fill="#6FA1CE" transform="translate(91,49)"/>
<path d="M0 0 C0.33 1.65 0.66 3.3 1 5 C-2.4352048 7.29013653 -3.985331 7.17842973 -8 7 C-7.08529012 1.6946827 -5.46561428 0 0 0 Z " fill="#152944" transform="translate(120,59)"/>
<path d="M0 0 C1.4783226 2.95664519 1.06032783 5.74229737 1 9 C1.99 9 2.98 9 4 9 C4.99 6.03 5.98 3.06 7 0 C7.33 0 7.66 0 8 0 C8 3.3 8 6.6 8 10 C1.9453125 10.9765625 1.9453125 10.9765625 0 11 C-2.19191368 8.80808632 -2.27869352 7.88522592 -3 5 C-3.66 4.34 -4.32 3.68 -5 3 C-3.35 2.01 -1.7 1.02 0 0 Z " fill="#1F354B" transform="translate(139,20)"/>
<path d="M0 0 C2.31 0 4.62 0 7 0 C7 1.32 7 2.64 7 4 C3.3558226 6.4294516 1.28758728 6.16179575 -3 6 C-3.66 8.31 -4.32 10.62 -5 13 C-5.99 12.67 -6.98 12.34 -8 12 C-7.01 11.67 -6.02 11.34 -5 11 C-5.33 9.35 -5.66 7.7 -6 6 C-4.54494642 5.47007308 -3.08581873 4.9513211 -1.625 4.4375 C-0.81289062 4.14746094 -0.00078125 3.85742188 0.8359375 3.55859375 C3 3 3 3 5 4 C5 3.01 5 2.02 5 1 C3.35 1 1.7 1 0 1 C0 0.67 0 0.34 0 0 Z " fill="#709ABE" transform="translate(209,18)"/>
<path d="M0 0 C0.99 0.33 1.98 0.66 3 1 C3 2.32 3 3.64 3 5 C2.360625 5.12375 1.72125 5.2475 1.0625 5.375 C0.381875 5.58125 -0.29875 5.7875 -1 6 C-1.33 6.66 -1.66 7.32 -2 8 C-3.64363134 8.72159424 -5.31050386 9.39351421 -7 10 C-7 6 -7 6 -5.57421875 4.26171875 C-4.64029297 3.48248047 -4.64029297 3.48248047 -3.6875 2.6875 C-2.76517578 1.88892578 -2.76517578 1.88892578 -1.82421875 1.07421875 C-0.92123047 0.54248047 -0.92123047 0.54248047 0 0 Z " fill="#6DA8DD" transform="translate(113,17)"/>
<path d="M0 0 C0.66 0.66 1.32 1.32 2 2 C2.99 2.33 3.98 2.66 5 3 C5.6875 5.0625 5.6875 5.0625 6 7 C3.36 7.33 0.72 7.66 -2 8 C-2.6875 6.25 -2.6875 6.25 -3 4 C-1.5625 1.75 -1.5625 1.75 0 0 Z " fill="#6FA6DC" transform="translate(151,11)"/>
<path d="M0 0 C0.99 0.33 1.98 0.66 3 1 C1.9171875 1.7425 1.9171875 1.7425 0.8125 2.5 C-2.65888511 5.58567566 -4.7163468 8.99631864 -7 13 C-8.32 12.01 -9.64 11.02 -11 10 C-10.67 9.01 -10.34 8.02 -10 7 C-8.35 7 -6.7 7 -5 7 C-5 6.01 -5 5.02 -5 4 C-3.35 3.34 -1.7 2.68 0 2 C0 1.34 0 0.68 0 0 Z " fill="#132C47" transform="translate(70,51)"/>
<path d="M0 0 C0.99 0.33 1.98 0.66 3 1 C3 1.66 3 2.32 3 3 C2.34 3 1.68 3 1 3 C1.804375 4.11375 1.804375 4.11375 2.625 5.25 C3.07875 6.1575 3.5325 7.065 4 8 C3.1875 10.3125 3.1875 10.3125 2 12 C1.01 12 0.02 12 -1 12 C-2.11658501 7.31034294 -1.80619523 4.46236469 0 0 Z " fill="#6FA8DD" transform="translate(19,10)"/>
<path d="M0 0 C1.27875 -0.061875 2.5575 -0.12375 3.875 -0.1875 C4.95394531 -0.23970703 4.95394531 -0.23970703 6.0546875 -0.29296875 C6.69664063 -0.19628906 7.33859375 -0.09960938 8 0 C10.1519437 3.22791555 10.20086443 4.28400809 10 8 C9.34 7.01 8.68 6.02 8 5 C5.03 5.66 2.06 6.32 -1 7 C-1 6.01 -1 5.02 -1 4 C1.31 4 3.62 4 6 4 C6 3.01 6 2.02 6 1 C4.02 1 2.04 1 0 1 C0 0.67 0 0.34 0 0 Z " fill="#6B9AC5" transform="translate(89,8)"/>
<path d="M0 0 C0.33 0.99 0.66 1.98 1 3 C0.34 3.66 -0.32 4.32 -1 5 C-0.34 5.66 0.32 6.32 1 7 C-0.25 8.5 -0.25 8.5 -2 10 C-3.32 10 -4.64 10 -6 10 C-6 9.34 -6 8.68 -6 8 C-6.99 8 -7.98 8 -9 8 C-9 6.35 -9 4.7 -9 3 C-8.67 4.32 -8.34 5.64 -8 7 C-3.42251491 4.1204024 -3.42251491 4.1204024 0 0 Z " fill="#6398C9" transform="translate(32,8)"/>
<path d="M0 0 C3.3 0.33 6.6 0.66 10 1 C9 4 9 4 6.625 5.1875 C4 6 4 6 1 6 C1 7.65 1 9.3 1 11 C0.67 11 0.34 11 0 11 C0 9.02 0 7.04 0 5 C1.98 4.34 3.96 3.68 6 3 C1.85906302 2.79029441 1.85906302 2.79029441 -2 4 C-1.34 2.68 -0.68 1.36 0 0 Z " fill="#152D48" transform="translate(60,19)"/>
<path d="M0 0 C1.65 0.99 3.3 1.98 5 3 C5.33 2.34 5.66 1.68 6 1 C6.66 3.31 7.32 5.62 8 8 C6.35 8.33 4.7 8.66 3 9 C0.70620251 5.55930376 0 4.27709699 0 0 Z " fill="#1D344B" transform="translate(195,10)"/>
<path d="M0 0 C0.99 0 1.98 0 3 0 C2.01 3.3 1.02 6.6 0 10 C-1.32 9.67 -2.64 9.34 -4 9 C-5.41534778 8.93543121 -6.83337689 8.91388961 -8.25 8.9375 C-9.4875 8.958125 -10.725 8.97875 -12 9 C-11.67 7.68 -11.34 6.36 -11 5 C-11 5.66 -11 6.32 -11 7 C-8.36 7 -5.72 7 -3 7 C-2.67 6.01 -2.34 5.02 -2 4 C-1.34 4 -0.68 4 0 4 C0 2.68 0 1.36 0 0 Z " fill="#162D46" transform="translate(105,57)"/>
<path d="M0 0 C0.53109375 0.49113281 1.0621875 0.98226562 1.609375 1.48828125 C4.68015462 3.43009777 6.64921396 3.30491694 10.25 3.1875 C11.32765625 3.16042969 12.4053125 3.13335937 13.515625 3.10546875 C14.33546875 3.07066406 15.1553125 3.03585938 16 3 C16 3.66 16 4.32 16 5 C13.89590361 5.02701408 11.79170822 5.04640223 9.6875 5.0625 C8.51574219 5.07410156 7.34398437 5.08570312 6.13671875 5.09765625 C3 5 3 5 0 4 C-1.72795352 3.93197033 -3.45835365 3.91504355 -5.1875 3.9375 C-6.08855469 3.94652344 -6.98960938 3.95554687 -7.91796875 3.96484375 C-8.94857422 3.98224609 -8.94857422 3.98224609 -10 4 C-10 3.67 -10 3.34 -10 3 C-9.36191406 2.95101562 -8.72382812 2.90203125 -8.06640625 2.8515625 C-7.24011719 2.77679688 -6.41382812 2.70203125 -5.5625 2.625 C-4.73878906 2.55539063 -3.91507812 2.48578125 -3.06640625 2.4140625 C-2.38449219 2.27742188 -1.70257813 2.14078125 -1 2 C-0.67 1.34 -0.34 0.68 0 0 Z " fill="#14293D" transform="translate(105,69)"/>
<path d="M0 0 C0.66 0 1.32 0 2 0 C2.33 2.31 2.66 4.62 3 7 C0.125 7.625 0.125 7.625 -3 8 C-3.66 7.34 -4.32 6.68 -5 6 C-3.36587557 4.29159719 -2.13093906 3.06546953 0 2 C0 1.34 0 0.68 0 0 Z " fill="#71A7D9" transform="translate(82,60)"/>
<path d="M0 0 C2.475 0.99 2.475 0.99 5 2 C4.33333333 6 3.66666667 10 3 14 C2.67 14 2.34 14 2 14 C1.93941406 13.40832031 1.87882813 12.81664062 1.81640625 12.20703125 C1.37987629 8.09021792 0.91328654 4.04455467 0 0 Z " fill="#6D97B5" transform="translate(170,50)"/>
<path d="M0 0 C2.31 0.33 4.62 0.66 7 1 C7 3.64 7 6.28 7 9 C6.67 9 6.34 9 6 9 C6 6.69 6 4.38 6 2 C5.01 2.66 4.02 3.32 3 4 C0.95703125 4.1953125 0.95703125 4.1953125 -1.1875 4.125 C-3.0746875 4.063125 -3.0746875 4.063125 -5 4 C-4.34 3.34 -3.68 2.68 -3 2 C-2.01 2 -1.02 2 0 2 C0 1.34 0 0.68 0 0 Z " fill="#6698C7" transform="translate(24,19)"/>
<path d="M0 0 C1.27875 -0.061875 2.5575 -0.12375 3.875 -0.1875 C4.95394531 -0.23970703 4.95394531 -0.23970703 6.0546875 -0.29296875 C6.69664062 -0.19628906 7.33859375 -0.09960938 8 0 C10 3 10 3 9.625 5.1875 C9.41875 5.785625 9.2125 6.38375 9 7 C6.36 7 3.72 7 1 7 C1 6.67 1 6.34 1 6 C2.98 6 4.96 6 7 6 C7 4.68 7 3.36 7 2 C4.69 1.67 2.38 1.34 0 1 C0 0.67 0 0.34 0 0 Z " fill="#688EB0" transform="translate(159,7)"/>
<path d="M0 0 C3.1875 -0.3125 3.1875 -0.3125 6 0 C6.33 0.66 6.66 1.32 7 2 C6.34 2 5.68 2 5 2 C5 2.99 5 3.98 5 5 C2.36 5 -0.28 5 -3 5 C-1.875 2.5 -1.875 2.5 0 0 Z " fill="#6FA6D7" transform="translate(88,25)"/>
<path d="M0 0 C0.99 0.33 1.98 0.66 3 1 C1.28571429 9.57142857 1.28571429 9.57142857 -3 13 C-3.33 12.34 -3.66 11.68 -4 11 C-3.34 11 -2.68 11 -2 11 C-2 9.35 -2 7.7 -2 6 C-1.34 6 -0.68 6 0 6 C0 4.02 0 2.04 0 0 Z " fill="#152D4E" transform="translate(53,8)"/>
<path d="M0 0 C2.31 0 4.62 0 7 0 C6.01 0.66 5.02 1.32 4 2 C2.65329988 3.15121139 1.32086059 4.31923068 0 5.5 C-2.28890485 7.54614222 -4.43498295 9.28998863 -7 11 C-6.34 9.35 -5.68 7.7 -5 6 C-4.34 6 -3.68 6 -3 6 C-3 5.01 -3 4.02 -3 3 C-2.01 3 -1.02 3 0 3 C0 2.01 0 1.02 0 0 Z " fill="#142B45" transform="translate(185,6)"/>
<path d="M0 0 C0.33 1.65 0.66 3.3 1 5 C-0.32 4.67 -1.64 4.34 -3 4 C-3.33 4.66 -3.66 5.32 -4 6 C-4 5.34 -4 4.68 -4 4 C-4.99 3.67 -5.98 3.34 -7 3 C-7 2.34 -7 1.68 -7 1 C-4.50935112 0.31292445 -2.62113708 0 0 0 Z " fill="#6FA8DD" transform="translate(58,50)"/>
<path d="M0 0 C3.37462715 0.54723683 5.08235 1.0549 8 3 C8.99 3 9.98 3 11 3 C9 6 7 9 5 12 C5.33 9.69 5.66 7.38 6 5 C5.01 4.34 4.02 3.68 3 3 C3 2.34 3 1.68 3 1 C2.01 1.33 1.02 1.66 0 2 C0 1.34 0 0.68 0 0 Z " fill="#6997C1" transform="translate(141,8)"/>
<path d="M0 0 C6.625 -0.125 6.625 -0.125 10 1 C10 1.66 10 2.32 10 3 C7.36 3.33 4.72 3.66 2 4 C1.34 2.68 0.68 1.36 0 0 Z " fill="#71A7D7" transform="translate(210,9)"/>
<path d="M0 0 C1.5625 1.75 1.5625 1.75 3 4 C2.6875 6.25 2.6875 6.25 2 8 C0.02 8.33 -1.96 8.66 -4 9 C-3.625 7.0625 -3.625 7.0625 -3 5 C-2.34 4.67 -1.68 4.34 -1 4 C-0.34786708 1.97536745 -0.34786708 1.97536745 0 0 Z " fill="#6798C1" transform="translate(124,56)"/>
<path d="M0 0 C1.65 0 3.3 0 5 0 C2.03 3.96 2.03 3.96 -1 8 C-3 5 -3 5 -4 2 C-2.68 2 -1.36 2 0 2 C0 1.34 0 0.68 0 0 Z " fill="#192C46" transform="translate(129,55)"/>
<path d="M0 0 C0 1.32 0 2.64 0 4 C-2.31 4.33 -4.62 4.66 -7 5 C-7 4.01 -7 3.02 -7 2 C-4 0 -4 0 0 0 Z " fill="#6EA8DC" transform="translate(158,24)"/>
<path d="M0 0 C0.66 0 1.32 0 2 0 C2.125 5.75 2.125 5.75 1 8 C0.01 8 -0.98 8 -2 8 C-2.125 5.125 -2.125 5.125 -2 2 C-1.34 1.34 -0.68 0.68 0 0 Z " fill="#6EA7E0" transform="translate(33,20)"/>
<path d="M0 0 C0.99 0.33 1.98 0.66 3 1 C2.625 2.9375 2.625 2.9375 2 5 C-1.21451269 6.60725635 -4.43612536 6.05748185 -8 6 C-8 5.67 -8 5.34 -8 5 C-6.02 5 -4.04 5 -2 5 C-2 4.01 -2 3.02 -2 2 C-1.34 2 -0.68 2 0 2 C0 1.34 0 0.68 0 0 Z " fill="#73A3CC" transform="translate(91,16)"/>
<path d="M0 0 C2.52742845 1.89557134 2.97169284 2.80589378 3.4375 6 C3 9 3 9 1 10.875 C0.01 11.431875 0.01 11.431875 -1 12 C-0.70703125 9.98177083 -0.4140625 7.96354167 -0.12109375 5.9453125 C0.1684297 3.91859333 0.1684297 3.91859333 -1 2 C-0.67 1.34 -0.34 0.68 0 0 Z " fill="#749DBC" transform="translate(160,16)"/>
<path d="M0 0 C0.33 0 0.66 0 1 0 C1.33 3.96 1.66 7.92 2 12 C-1 11 -1 11 -2.1875 8.9375 C-2.455625 8.298125 -2.72375 7.65875 -3 7 C-2.34 7 -1.68 7 -1 7 C-1.020625 6.030625 -1.04125 5.06125 -1.0625 4.0625 C-1 1 -1 1 0 0 Z " fill="#23466F" transform="translate(97,16)"/>
<path d="M0 0 C0.33 0 0.66 0 1 0 C1 3.96 1 7.92 1 12 C0.01 11.67 -0.98 11.34 -2 11 C-1.85957123 9.35369672 -1.71250671 7.70795821 -1.5625 6.0625 C-1.48128906 5.14597656 -1.40007813 4.22945312 -1.31640625 3.28515625 C-1 1 -1 1 0 0 Z " fill="#2C4F79" transform="translate(39,13)"/>
<path d="M0 0 C0.515625 0.309375 1.03125 0.61875 1.5625 0.9375 C4.66665423 2.29059287 7.65115007 2.61359424 11 3 C10.67 3.99 10.34 4.98 10 6 C9.01 6.33 8.02 6.66 7 7 C7 6.01 7 5.02 7 4 C4.69 3.67 2.38 3.34 0 3 C0 2.01 0 1.02 0 0 Z " fill="#152F4E" transform="translate(147,17)"/>
<path d="M0 0 C0.33 0.66 0.66 1.32 1 2 C1.99 2 2.98 2 4 2 C4 2.99 4 3.98 4 5 C3.01 5 2.02 5 1 5 C1 5.66 1 6.32 1 7 C0.34 7 -0.32 7 -1 7 C-1.625 5.1875 -1.625 5.1875 -2 3 C-1.34 2.01 -0.68 1.02 0 0 Z " fill="#6EA8DC" transform="translate(53,18)"/>
<path d="M0 0 C1.32 0.66 2.64 1.32 4 2 C-1.75 7 -1.75 7 -4 7 C-4 5.68 -4 4.36 -4 3 C-2.68 2.67 -1.36 2.34 0 2 C0 1.34 0 0.68 0 0 Z " fill="#162A43" transform="translate(28,8)"/>
<path d="M0 0 C2 0.3125 2 0.3125 4 1 C4.33 1.66 4.66 2.32 5 3 C4.01 3 3.02 3 2 3 C2 3.66 2 4.32 2 5 C0.68 5 -0.64 5 -2 5 C-1.125 1.125 -1.125 1.125 0 0 Z " fill="#18242B" transform="translate(114,61)"/>
<path d="M0 0 C1.9375 0.75 1.9375 0.75 4 2 C4.75 4.125 4.75 4.125 5 6 C4.236875 5.835 3.47375 5.67 2.6875 5.5 C-0.03596236 4.90854604 -0.03596236 4.90854604 -3 5 C-2.01 3.35 -1.02 1.7 0 0 Z " fill="#193043" transform="translate(37,24)"/>
<path d="M0 0 C0.66 0 1.32 0 2 0 C3.85776765 3.13498292 4.20140476 5.37471432 4 9 C2 7.875 2 7.875 0 6 C-0.25 2.8125 -0.25 2.8125 0 0 Z " fill="#5F96D1" transform="translate(176,21)"/>
<path d="M0 0 C0.99 0 1.98 0 3 0 C3 1.32 3 2.64 3 4 C1.02 4.66 -0.96 5.32 -3 6 C-2.42655063 3.13275314 -2.1385485 2.1385485 0 0 Z " fill="#19262F" transform="translate(187,17)"/>
<path d="M0 0 C0.99 0.33 1.98 0.66 3 1 C2.02501855 2.5027237 1.04490611 4.00211963 0.0625 5.5 C-0.48277344 6.3353125 -1.02804688 7.170625 -1.58984375 8.03125 C-2.05519531 8.6809375 -2.52054688 9.330625 -3 10 C-3.33 10 -3.66 10 -4 10 C-4.25 7.25 -4.25 7.25 -4 4 C-2 1.625 -2 1.625 0 0 Z " fill="#152C49" transform="translate(15,6)"/>
<path d="M0 0 C2 2 2 2 2 5 C-2.455 5.495 -2.455 5.495 -7 6 C-6.34 4.68 -5.68 3.36 -5 2 C-2.525 2.99 -2.525 2.99 0 4 C0 2.68 0 1.36 0 0 Z " fill="#16314C" transform="translate(141,60)"/>
<path d="M0 0 C2.6875 0.875 2.6875 0.875 5 2 C4.401875 2.268125 3.80375 2.53625 3.1875 2.8125 C1.02775192 3.98493467 -0.35790256 5.19369282 -2 7 C-2.33 5.35 -2.66 3.7 -3 2 C-2.01 1.34 -1.02 0.68 0 0 Z " fill="#6597C9" transform="translate(145,58)"/>
<path d="M0 0 C0.33 0.99 0.66 1.98 1 3 C0.34 3 -0.32 3 -1 3 C-1.33 4.32 -1.66 5.64 -2 7 C-2 5.68 -2 4.36 -2 3 C-4.64 3 -7.28 3 -10 3 C-10 2.67 -10 2.34 -10 2 C-3.375 0 -3.375 0 0 0 Z " fill="#6698CA" transform="translate(82,11)"/>
<path d="M0 0 C0.66 0 1.32 0 2 0 C1.96744792 2.01822917 1.93489583 4.03645833 1.90234375 6.0546875 C1.87350758 8.08185404 1.87350758 8.08185404 3 10 C2.01 10 1.02 10 0 10 C-1.60339848 6.88228073 -2.18974141 5.60988311 -1.125 2.1875 C-0.75375 1.465625 -0.3825 0.74375 0 0 Z " fill="#132C48" transform="translate(76,20)"/>
<path d="M0 0 C0.66 0 1.32 0 2 0 C2.33 2.97 2.66 5.94 3 9 C2.01 9 1.02 9 0 9 C-0.87890625 2.84765625 -0.87890625 2.84765625 -1 1 C-0.67 0.67 -0.34 0.34 0 0 Z " fill="#162D49" transform="translate(28,21)"/>
<path d="M0 0 C2.31 0 4.62 0 7 0 C7 1.32 7 2.64 7 4 C6 5 6 5 3.4375 5.0625 C2.2309375 5.0315625 2.2309375 5.0315625 1 5 C1.66 4.34 2.32 3.68 3 3 C3.66 3.33 4.32 3.66 5 4 C5 3.01 5 2.02 5 1 C3.35 1 1.7 1 0 1 C0 0.67 0 0.34 0 0 Z " fill="#749FC6" transform="translate(209,18)"/>
<path d="M0 0 C0.66 1.32 1.32 2.64 2 4 C1.34 4 0.68 4 0 4 C0.20625 4.598125 0.4125 5.19625 0.625 5.8125 C1 8 1 8 -1 11 C-2.1577506 7.52674819 -2.06866652 4.63932552 -2 1 C-1.34 0.67 -0.68 0.34 0 0 Z " fill="#69A2D6" transform="translate(42,18)"/>
<path d="M0 0 C0.99 0 1.98 0 3 0 C3 0.66 3 1.32 3 2 C3.99 2.33 4.98 2.66 6 3 C5.67 4.32 5.34 5.64 5 7 C5 6.01 5 5.02 5 4 C2.69 3.67 0.38 3.34 -2 3 C-1.34 2.01 -0.68 1.02 0 0 Z " fill="#729CC4" transform="translate(126,7)"/>
<path d="M0 0 C0.66 0 1.32 0 2 0 C1.38722388 2.96175123 0.74627478 4.38058783 -1 7 C-1.66 7 -2.32 7 -3 7 C-3 5.68 -3 4.36 -3 3 C-2.34 3 -1.68 3 -1 3 C-0.67 2.01 -0.34 1.02 0 0 Z " fill="#6D9CC1" transform="translate(170,64)"/>
<path d="M0 0 C1.32 0 2.64 0 4 0 C4 0.66 4 1.32 4 2 C4.66 2 5.32 2 6 2 C6 3.65 6 5.3 6 7 C5.01 6.67 4.02 6.34 3 6 C2.4375 4.0625 2.4375 4.0625 2 2 C1.34 1.34 0.68 0.68 0 0 Z " fill="#719BBA" transform="translate(118,49)"/>
<path d="M0 0 C2.625 -0.1875 2.625 -0.1875 5 0 C5.33 1.65 5.66 3.3 6 5 C5.01 4.67 4.02 4.34 3 4 C3 3.01 3 2.02 3 1 C1.35 1.66 -0.3 2.32 -2 3 C-1.34 2.01 -0.68 1.02 0 0 Z " fill="#6D9BC1" transform="translate(184,50)"/>
<path d="M0 0 C2.475 0.99 2.475 0.99 5 2 C0.25 6 0.25 6 -2 6 C-1.34 4.02 -0.68 2.04 0 0 Z " fill="#6595C4" transform="translate(159,49)"/>
<path d="M0 0 C0.66 0 1.32 0 2 0 C1.71758359 1.46015291 1.42373386 2.91809793 1.125 4.375 C0.96257812 5.18710938 0.80015625 5.99921875 0.6328125 6.8359375 C0 9 0 9 -2 11 C-1.85957123 9.35369672 -1.71250671 7.70795821 -1.5625 6.0625 C-1.48128906 5.14597656 -1.40007812 4.22945312 -1.31640625 3.28515625 C-1 1 -1 1 0 0 Z " fill="#163355" transform="translate(112,8)"/>
<path d="M0 0 C1.32 0.33 2.64 0.66 4 1 C3.6875 3.875 3.6875 3.875 3 7 C2.01 7.66 1.02 8.32 0 9 C0.185625 7.88625 0.37125 6.7725 0.5625 5.625 C1.31680657 2.17431139 1.31680657 2.17431139 0 0 Z " fill="#213540" transform="translate(193,60)"/>
<path d="M0 0 C2 3 2 3 2 6 C1.01 6.495 1.01 6.495 0 7 C-1.13350534 9.01669827 -1.13350534 9.01669827 -2 11 C-3 9 -3 9 -2.44140625 6.8359375 C-2.15136719 6.02382813 -1.86132812 5.21171875 -1.5625 4.375 C-1.27503906 3.55773438 -0.98757812 2.74046875 -0.69140625 1.8984375 C-0.46324219 1.27195313 -0.23507813 0.64546875 0 0 Z " fill="#5589BD" transform="translate(90,50)"/>
<path d="M0 0 C1.32 0.99 2.64 1.98 4 3 C3.625 5.4375 3.625 5.4375 3 8 C2.01 8.495 2.01 8.495 1 9 C0.67 6.03 0.34 3.06 0 0 Z " fill="#6F98B4" transform="translate(58,50)"/>
<path d="M0 0 C0.66 1.32 1.32 2.64 2 4 C2.99 4 3.98 4 5 4 C5.33 4.99 5.66 5.98 6 7 C4.68 7.33 3.36 7.66 2 8 C-0.1519437 4.77208445 -0.20086443 3.71599191 0 0 Z " fill="#638DB7" transform="translate(117,23)"/>
<path d="M0 0 C0.99 0 1.98 0 3 0 C3.33 1.98 3.66 3.96 4 6 C3.01 6 2.02 6 1 6 C0.67 5.01 0.34 4.02 0 3 C-0.66 2.67 -1.32 2.34 -2 2 C-1.34 1.34 -0.68 0.68 0 0 Z " fill="#162840" transform="translate(114,24)"/>
<path d="M0 0 C2.91227269 3.28804981 4.49701212 5.59885603 5 10 C4.01 10.495 4.01 10.495 3 11 C3 9.35 3 7.7 3 6 C2.01 6 1.02 6 0 6 C0 4.02 0 2.04 0 0 Z " fill="#6795BB" transform="translate(195,14)"/>
<path d="M0 0 C0 1.32 0 2.64 0 4 C-1.65 4.33 -3.3 4.66 -5 5 C-5 3.68 -5 2.36 -5 1 C-2 0 -2 0 0 0 Z " fill="#6DA8DE" transform="translate(180,61)"/>
<path d="M0 0 C0.99 0.33 1.98 0.66 3 1 C2.67 2.65 2.34 4.3 2 6 C1.01 6 0.02 6 -1 6 C-1.042721 4.33388095 -1.04063832 2.66617115 -1 1 C-0.67 0.67 -0.34 0.34 0 0 Z " fill="#629BD1" transform="translate(79,58)"/>
<path d="M0 0 C1.41377341 2.63904371 2.37240135 5.07120629 3 8 C0.525 7.01 0.525 7.01 -2 6 C-2 5.01 -2 4.02 -2 3 C-1.34 3 -0.68 3 0 3 C0 2.01 0 1.02 0 0 Z " fill="#6D9AB9" transform="translate(81,52)"/>
<path d="M0 0 C0.99 0 1.98 0 3 0 C3 0.66 3 1.32 3 2 C-0.41831915 4.5393228 -2.75776898 5.3636198 -7 5 C-4 3 -4 3 -1 3 C-0.67 2.01 -0.34 1.02 0 0 Z " fill="#6690B6" transform="translate(136,19)"/>
<path d="M0 0 C2.05825864 4.11651727 2.34008135 4.86808251 1 9 C0.01 9.495 0.01 9.495 -1 10 C-0.67 6.7 -0.34 3.4 0 0 Z " fill="#244463" transform="translate(165,53)"/>
<path d="M0 0 C0.99 0.33 1.98 0.66 3 1 C2.40138258 3.35171131 1.73075648 5.6859378 1 8 C0.01 8.495 0.01 8.495 -1 9 C-0.67 6.03 -0.34 3.06 0 0 Z " fill="#1C3B5E" transform="translate(173,58)"/>
<path d="M0 0 C2.0625 0.4375 2.0625 0.4375 4 1 C3.01 1 2.02 1 1 1 C1 2.32 1 3.64 1 5 C-0.32 5 -1.64 5 -3 5 C-1.125 1.125 -1.125 1.125 0 0 Z " fill="#1A252D" transform="translate(73,60)"/>
<path d="M0 0 C0.99 0 1.98 0 3 0 C3 1.98 3 3.96 3 6 C1.68 5.01 0.36 4.02 -1 3 C-0.67 2.01 -0.34 1.02 0 0 Z " fill="#172B39" transform="translate(60,58)"/>
<path d="M0 0 C0.99 0.495 0.99 0.495 2 1 C3.54023996 1.06950541 5.08334988 1.08452357 6.625 1.0625 C7.44226563 1.05347656 8.25953125 1.04445313 9.1015625 1.03515625 C9.72804688 1.02355469 10.35453125 1.01195313 11 1 C11 1.66 11 2.32 11 3 C7.7 3.33 4.4 3.66 1 4 C0.67 2.68 0.34 1.36 0 0 Z " fill="#1C2F43" transform="translate(98,28)"/>
<path d="M0 0 C1.98 0.495 1.98 0.495 4 1 C4 1.66 4 2.32 4 3 C3.01 3 2.02 3 1 3 C0.67 3.99 0.34 4.98 0 6 C-1.125 2.25 -1.125 2.25 0 0 Z " fill="#5F87B2" transform="translate(56,7)"/>
</svg>
